<?xml version="1.0" encoding="UTF-8"?>
<!DOCTYPE svg PUBLIC "-//W3C//DTD SVG 1.1//EN" "http://www.w3.org/Graphics/SVG/1.1/DTD/svg11.dtd">
<!-- Creator: CorelDRAW 2021 (64-Bit) -->
<svg xmlns="http://www.w3.org/2000/svg" xml:space="preserve" width="120mm" height="100mm" version="1.1" style="shape-rendering:geometricPrecision; text-rendering:geometricPrecision; image-rendering:optimizeQuality; fill-rule:evenodd; clip-rule:evenodd"
viewBox="0 0 12000 10000"
 xmlns:xlink="http://www.w3.org/1999/xlink"
 xmlns:xodm="http://www.corel.com/coreldraw/odm/2003">
 <defs>
  <style type="text/css">
   <![CDATA[
    .fil15 {fill:none}
    .fil3 {fill:#10162E}
    .fil8 {fill:#121111}
    .fil11 {fill:#161515}
    .fil6 {fill:#191517}
    .fil7 {fill:#1C1A1B}
    .fil1 {fill:#201E1F}
    .fil2 {fill:#211D1E}
    .fil5 {fill:#211F20}
    .fil14 {fill:#30E3B0}
    .fil20 {fill:#509692}
    .fil18 {fill:#5B9EA0}
    .fil16 {fill:#787676}
    .fil10 {fill:#914F6E}
    .fil12 {fill:#92BAD2}
    .fil17 {fill:#A4A3A4}
    .fil24 {fill:#B25278}
    .fil13 {fill:#D08F81}
    .fil23 {fill:#DF536E}
    .fil22 {fill:#EA8F66}
    .fil21 {fill:#EAB459}
    .fil25 {fill:#EABC57}
    .fil9 {fill:#EABE56}
    .fil0 {fill:#F5FAFB}
    .fil4 {fill:#F7C735}
    .fil19 {fill:#FCECAF}
   ]]>
  </style>
 </defs>
 <g id="Capa_x0020_1">
  <metadata id="CorelCorpID_0Corel-Layer"/>
  <rect class="fil0" x="-2.87" y="3.8" width="12000" height="10000"/>
  <g id="_3112795092896">
   <g>
    <path class="fil1" d="M5997.79 5620.93l-336.78 -25.56 -274.87 63.96c-244.3,-274.27 -317.69,-1588.62 -203.53,-1949.53 93.93,150.6 127.37,297.65 148.79,443.99 139.16,-189.07 39.62,-307.23 -11.46,-486.39 164.6,80.07 286.35,216.24 369.71,402.46 106.6,-296.97 -135.23,-346.58 -168.14,-510.28 124.19,-32.37 289.31,11.8 379.24,87.09l-65.24 -151.38c88.7,-96.98 261.45,-138.97 389.84,-131.06 -256.4,101.5 -342.4,432.99 -176.65,616.21 75.83,-254.49 176.96,-461.13 329.9,-570.02 -92.93,196.23 -68.96,427.8 96.33,624.03l38.88 -542.21c256.03,233.61 336.07,1877.07 186.32,2207.61 -224.3,-24.88 -448.61,-49.77 -672.91,-74.65l-0.58 -36.33 11.93 -1 12.44 39.97 32.17 3.56 -16.97 -48.08 151.2 -40.28c80.41,-137.95 204.12,-289 200.11,-450.87l-248.31 -6.53 -7.72 81.11 -59.14 171.43c-32.91,71.09 -79.67,131.9 -166.43,163.13l-197.47 -172.12 -27.94 -6.93 197.4 208.56 90.43 54.29 -0.55 35.82zm362.83 -2602.81c-131.85,-76.86 -239.49,-81.03 -319.95,-3.72 95.87,31.84 159.61,43.14 207.37,137.72 -211.55,4.95 -399.73,58.71 -517.01,260.78 -109.96,-45.12 -233.28,-61.3 -372.59,-42.82l54.71 -57.03 111.84 -120.66c-167.01,-28.45 -147.31,28.39 -278.46,80.3 -70.87,-113.38 -44.93,-200.71 -161.42,-289.68l-29.91 202.59c-108.78,-59.29 -240.6,-32.65 -349.38,5.11l266.28 178.78c-303.4,-20.32 -380.05,16.35 -603.26,251.02l561.42 -67.81c-5.66,82.72 -365.25,320.79 -252.21,635.89l406.04 -507.49c-2.79,243.62 -66.99,494.61 -63.14,773.02 3.78,273.61 48.06,511.35 68.72,777.18l13.5 90.47 -40.72 -62.53c-113.45,-224.48 -326.21,-419.75 -571.49,-485.46l-71.14 1.42c259.2,169.53 753.18,518.18 687.97,886.13 -130.88,117.65 -840.4,176.67 -845.57,363.58 121.31,61.12 3076.84,68.7 3213.11,6.81 -65.08,-123.03 -246.27,-217.03 -491.82,-294.93 -92.95,-327.38 292.92,-1279.11 628.17,-1197.09 43.07,142.05 20.64,314.84 -35.66,446.98 166.21,-10.26 204.63,-269.41 239.52,-375.12 141.63,141.76 179.17,325.14 171.68,526.54 129.93,-135.51 101.85,-423.54 39.43,-589.61 68.48,-42.61 161.19,-3.29 229.68,83.27 23.84,-194.12 -91.61,-215.67 -255.96,-264.15 39.18,-65.12 85.22,-68.56 134.34,-44.22 -49.5,-85.48 -137.75,-115.57 -256.82,-101.69 37.59,-105.13 -1.38,-184.73 -83.05,-250.1 10.49,129.51 -15.25,191.95 -80.99,172.24 -93.12,-163.8 -236.05,-192.47 -398.77,-167.37 155,64.32 233.18,140.8 199.39,234.94 -86.3,-33.27 -188.1,-10.31 -231.2,60.12 76.34,-13.61 180.84,8.55 231.24,81.37 -212.05,-41.69 -378.94,52.09 -461.32,217.81 142.42,-77.69 322.48,-143 499.48,-125.63l-49.8 46.13c-428.29,198.12 -365.3,456.22 -563.95,672.63 -53.53,-245.43 -41.19,-642.36 -94.02,-940.86 -40.14,-226.78 -151.44,-632.89 -244.55,-843.13l540.11 505.83c-33.38,-318.39 -193.5,-519.78 -449.57,-632.59 208.1,-60.48 430.86,-62.28 664.68,-19.96 -211.83,-159.7 -407.04,-253.68 -695.97,-182.09 24.73,-122.53 112.08,-211.36 248.19,-273.96 -135.8,-46.16 -261.05,-36.82 -362.56,96.95 -82.99,-36.06 -76.95,-129.54 -48.05,-240.96 -127.07,81.75 -189.4,200.5 -136.56,385.05z"/>
   </g>
   <path class="fil2" d="M6012.01 6893.66c-122.97,-80.11 -225.54,-75.14 -327.08,23.24 253.74,470.57 -1.61,1021.31 41.59,1132.15 109.38,44.69 355.48,45.06 467.04,5.26 15.21,-86.75 -245.57,-210.09 -277.7,-469.62 -34.09,-275.44 116.78,-425.81 385.11,-438.42 265.95,-12.49 427.86,109 440.24,380.37 14.14,310.13 -201.16,474.36 -191.46,546.79l486.72 -16.69c5.72,-58.74 -212.86,-240.8 -182.52,-566.08 46.84,-502.36 932.97,-475.08 815.84,127.72 -42.13,216.81 -291.9,364.73 -278.63,437.64 111.73,39.45 359.55,37.19 467.74,-9.97 20.74,-51.51 -61.7,-375.86 -64.16,-489.85 -3.84,-178.15 20.24,-448.85 -81.93,-601.39 -211.3,-315.49 -659.95,-103.79 -813.16,222.09l-48.01 49.45 -37.22 -105.14c-45.24,-267.13 -244.9,-367.38 -505.7,-294.81 -286.13,79.62 -252.98,247.64 -384.92,352.3 -6.72,-126.54 22.08,-179.95 88.21,-285.04z"/>
   <path class="fil2" d="M1825.07 7284.26c-59.01,-613.9 736.03,-612.78 682.78,1.18 -127.63,-73.87 -122.46,-185.81 -338.32,-186.13 -229.08,-0.34 -219.04,111.64 -344.46,184.95zm130.61 776.29c5.79,-69.87 -385.38,-692.17 246.13,-644.53 565.26,42.64 162.75,539.24 153.31,659.38l618.84 -14.03c0.76,-12.33 -273.2,-609.91 -307.44,-719.38 -82.4,-263.51 -109.83,-705.47 -176.83,-885.71 -135.43,-60.96 -508.71,-59.29 -645.09,-0.46 -58.41,144.22 -113.11,657.77 -190.2,907.81 -36.79,119.34 -295.7,662.5 -292.31,710.36l593.59 -13.44z"/>
   <path class="fil2" d="M8315.05 7689.7c-5.55,-327.93 638.09,-323.36 797.45,-125.52 -96.69,222.46 -625.09,279.03 -797.45,125.52zm797.69 -297.69l5.35 52.17 -59.3 -22.21c-315.82,-170.88 -1120.76,-125.03 -1060.15,377.04 50.94,421.92 836.75,392.62 1095,61.4l41.45 -42.36 46.75 245.58 159.17 -12.98c-175.6,-442.44 36.69,-1025.01 -399.56,-1196.31 -485.89,-190.8 -1254.02,170.86 -797.45,452.33 205.25,-58.98 87.97,-170.85 515.81,-162.17 205.48,4.18 382.85,36.24 452.93,247.51z"/>
   <path class="fil2" d="M9613.13 7491.48c312.22,77.73 826.78,-84.89 930,111 -86.81,284.56 -701.44,206.89 -916.09,-66.84 -440.64,339.25 446.05,817.17 941.53,450.67 219.46,-162.34 198.11,-524.89 -111,-578.09 -215,-37 -619.17,143.87 -757.39,-69.89 23.18,-202.48 303.86,-210.71 471.5,-197.25 285.58,22.92 288.83,181.84 448.66,193.43 285.95,-360.46 -338.16,-565.03 -653.12,-520.56 -371.84,52.49 -596.49,332.45 -354.09,677.53z"/>
   <path class="fil2" d="M4668.96 7152.66c827.02,-124.75 1000.94,504.75 385.55,607.77 -824.49,138.04 -1072.76,-504.11 -385.55,-607.77zm828.72 476.45c229.67,-847.86 -1073.59,-1151.29 -1295.47,-364.79 -247.57,877.58 1072.03,1189.67 1295.47,364.79z"/>
   <path class="fil2" d="M3441.94 6895.43c-111.93,-70.21 -207.55,-73.09 -320.65,-3.75 245.49,495.13 39.98,921.96 -2.19,1182.31l561.22 -0.63c-110.39,-180.14 -407.82,-254.85 -337.52,-646.71 66.92,-373.02 466.93,-250.72 677.99,-278.51 36.57,-117.86 35.26,-188.86 -4.21,-306.92 -347.47,-135.41 -508.12,128.25 -680.81,361.65l106.17 -307.44z"/>
   <path class="fil3" d="M5037.26 1802.87l149.86 56.23c-107.36,14.04 -9.17,65.96 15.27,92.07 112.32,14.69 224,106.52 337.2,246.85l-71.74 95.54 71.82 35.24 -78.26 197.73c52.39,19.93 5.83,-12.57 27.31,56.5 143.79,-208.35 201.97,-443.72 474.63,-445.8 61.96,-98.52 59.62,-159.75 13.88,-205.07 -79.6,-78.87 -239,-117.28 -356.11,-219.83l-470.83 -220.38 -231.49 -54.88c-88.62,24.23 -214.98,-24.02 -349.5,-89.54 28.58,212.27 125.9,343.12 467.96,455.34z"/>
   <path class="fil4" d="M5891.51 2550.81c635.73,-85.57 907.78,-465.66 661.52,-1192.71 -116.5,48.69 -221.23,154.87 -206.82,396.69 14.2,238.13 -152.43,477.2 -343.59,616.41l-103.92 75.68 -7.19 103.93z"/>
   <path class="fil5" d="M4282.32 4441.41l-43.37 77.04 -109.82 -156.99c-24.62,81.83 -44.87,154.33 -9.14,254.19 -72.83,-26.33 -165.25,-8.88 -229.62,28.33l112.6 95.91c-110.18,82.06 -164.85,131.26 -161.49,278.99l127.6 -54.32 69.87 -27.65c-30.74,49.15 -37.71,354.99 76.55,438.98l117.71 -397.61c59.11,109.11 181.68,231.62 294.5,277.28 -82.42,-146.62 -166.67,-333.76 -107.89,-480.36 178.77,-7.29 341.83,33.27 498.14,65.36 -102.95,-96.08 -214.41,-195.95 -361.31,-218.75l119.98 -107.17c-72.58,-17.82 -188.83,-19.33 -266.84,21.44 14.44,-98.54 65.65,-174.76 139.1,-237.48 -143.08,-18.2 -190.94,23.58 -266.57,142.81z"/>
   <path class="fil3" d="M6259 1458.35l-40.12 -63.53 40.12 63.53zm-265.13 144.42c-58.24,-315 245.15,-371.27 382.47,-263.52 -286.86,67.31 -238.91,18 -382.47,263.52zm481.13 -345.03l-340.83 -21.48c-150.32,54.03 -169.13,50.39 -223.35,209.45 -24.16,13.1 -44.18,29.7 -43.32,63.98l-532.64 -292.71 220.97 263.34c260.01,163.53 442.69,184.27 548.24,461.03l-116.52 349.62 204.41 -404.15c-105.66,-134.75 -119.56,-136.51 -98.4,-316.3l165.44 -112.17 77.61 -22.69 -69.77 226.59c37.55,121.26 69.81,106.04 36.21,218.4 -9.82,124.64 -68.39,239.1 -188.98,358.36l13.21 65.41c462.52,-413.61 17.08,-687.11 447.58,-960.7l429.4 -165.39c-176.42,1.3 -352.85,33.56 -529.26,79.41z"/>
   <path class="fil4" d="M5321.13 1185.83c130.38,133.52 365.99,240.19 546.37,323.86 21.2,-54.24 26.79,-22.37 43.32,-63.98 21.17,-53.28 39.22,-128.9 110.49,-161.54 163.61,-74.92 219.16,4.02 431.54,-27.82 -296.63,-317.39 -780.67,-282.12 -1131.72,-70.52z"/>
   <path class="fil1" d="M5995.93 4814.97l8.76 -5.13c223.33,-24.16 224.34,66.89 420.86,101.77 6.94,-111.26 -181.12,-290.78 -268.54,-369.88l-63.12 -41.22c-146.28,4.37 -365.05,-10.2 -478.56,74.37 128.46,149.06 213.95,38.41 380.6,240.09z"/>
   <path class="fil3" d="M5687.9 2362.78c-137.05,114.24 -73.16,174.37 -194.15,313.04l-78.67 56.73c-15.07,70.57 -88.14,168.59 -190.59,232.44 288.07,-32.23 464.1,-185 591.23,-449.76 17.97,123.39 27.37,178.01 -11.65,281.28 92.19,-54.34 132.38,-162.01 97.19,-347.07l113.18 -66.42 112.84 -78.6 -13.21 -65.41c-120.69,66.13 -279.49,87.9 -426.17,123.77z"/>
   <path class="fil4" d="M5219.99 2382.8c191.2,-32.75 295.59,-89.79 319.6,-184.78 -80.79,-127.52 -264.18,-254.08 -331.46,-246.03l-66.21 -56.19c-10.91,-21.37 9.57,-29.46 45.2,-36.7l-140.71 -52.79c-6.16,51.9 -7.23,104.56 -3.08,156.76 4.14,52.2 13.53,103.97 28.25,154.07 14.73,50.11 34.82,98.59 60.38,144.19 25.56,45.61 51.36,82.76 88.03,121.47z"/>
   <polygon class="fil1" points="5661.01,5595.37 5716.77,5611.32 5831,5345.29 6085.02,5376.34 6102.35,5338.18 5848.8,5311.67 6004.69,4809.84 5971.1,4786.52 5781.16,5302.18 5713.92,5289.46 5710.51,5322.26 5766.55,5336.16 "/>
   <path class="fil3" d="M5092.63 2389.15c89.57,79.44 186.89,112.35 299.74,52.02 -80.88,104.61 -188.98,148.9 -323.48,134.74 104.19,82.22 224.83,106.93 371.42,40.84 -99.1,96.77 -249.49,170.8 -441.42,112.8 42.22,154.28 196.75,166.02 439.57,65.71l71.59 -147.69 -12.31 -77.8c458.45,-177.04 731.92,-452.76 460.25,-439.35 -91.22,4.5 -245.85,71.76 -479.42,158.98 -164.99,72.26 -345.69,105.52 -385.94,99.75z"/>
   <path class="fil6" d="M7532.45 8722.72c52.05,224.11 484.48,180.7 381.12,-166.6 -68.56,-230.36 -459.94,-172.76 -381.12,166.6z"/>
   <path class="fil7" d="M3597.62 8546.33c116.55,-82.83 67.42,-18.72 201.96,-21.38 -24.98,-150.88 -189.49,-121.76 -285.07,-40.03 -12.55,261.66 109.15,89.63 198.43,261.46 -155.89,88.45 -68.2,-47.11 -202.85,15.5 65.05,135 177.73,126.14 298.55,45.99 26.08,-236.06 -28.8,-133.17 -211.02,-261.54z"/>
   <path class="fil3" d="M4785.33 1373.9c92.21,50.79 184.41,89.87 276.61,97.9l843.14 192.21 0 -33.67 -1319.75 -576.5c-8.04,152.58 90.17,250.79 200,320.06z"/>
   <path class="fil7" d="M6235.44 8748.79c-41.59,-97.86 -43.77,-181.79 58.57,-228.26 51.51,-23.1 92.54,-21.86 109.9,34.37 23.44,21.74 48.91,24.33 77.68,-3.75 -39.8,-142.41 -152.27,-174.21 -310.23,-95.7 -216.02,271.04 147.73,579.72 291.58,296.45 -21.61,-27.18 -48.14,-37.28 -81.52,-23.32 -36.12,75.76 -86.37,73.75 -145.98,20.21z"/>
   <path class="fil8" d="M4279.95 8786c-16.23,-41.14 -21.03,-81.35 -10.66,-120.28 73.65,7.8 138.39,9.15 184.21,-3.11 10.43,-13.18 11.53,-28.26 2.72,-45.31 -55.31,-12.5 -118.93,-15.07 -188.89,-9.99 -16.26,-36.66 -18.99,-72.19 -4.68,-106.29 62.09,3.68 128.32,3.21 199.21,-1.9 12.01,-18.75 10.7,-39.91 -5.31,-63.77 -85.8,-10.79 -170.08,-10.31 -253.32,0.06 -42.63,119.88 -40.86,282.69 -2.4,403.68 88.21,14.77 173.77,19.09 254.22,2.91 11.49,-14.73 13.54,-31.19 0.69,-50.35 -58.6,-12.46 -117.19,-15.39 -175.79,-5.65z"/>
   <path class="fil9" d="M5905.08 1664.01c-270.31,-55.65 -984.46,-397.84 -1218.54,-523.1 -49.38,55.79 477.73,388.85 906.64,576.69l510.89 223.75c-11.24,-127.68 -58.69,-232.17 -198.99,-277.34z"/>
   <path class="fil3" d="M5193.98 1347.35l239.54 107.38 122.31 25.59 -30.62 -65.85 94.69 -28.5c-141.74,-52.67 -266.43,-153.32 -378.97,-288.13 -85.77,95.44 -91.7,176.92 -46.95,249.51z"/>
   <path class="fil10" d="M5494.66 2575.99l5.03 92.79c102.31,-80.51 187.78,-180.62 249.68,-308.28 181.63,-39.47 232.89,-144.1 219.92,-230.31 -272.66,2.08 -330.84,237.45 -474.63,445.8z"/>
   <path class="fil11" d="M7041.67 8824.2l10.66 -330.7 127.12 -5.18c10.16,-19.04 11.68,-38.07 1.24,-57.12 -114.16,-14.64 -228.32,-9.54 -342.46,9.62 -14.75,19.76 -13.27,37.9 -2.41,55.11l139.42 -0.5 0.11 330.4c22.11,8.95 44.21,7.2 66.32,-1.63z"/>
   <path class="fil12" d="M5993.87 1602.77c143.56,-245.52 95.61,-196.21 382.47,-263.52 -137.32,-107.75 -440.71,-51.48 -382.47,263.52z"/>
   <path class="fil8" d="M5087.13 8829.24c11.51,-20.73 10.23,-38.77 -2.53,-54.45 -44.95,-10.57 -93.18,-13 -148.33,1.97 17.85,-112.3 11.9,-226.9 -10.45,-343.67 -24.93,-10.4 -49.84,-10.05 -74.75,2.55 -17.16,151.58 -9.85,282.96 22.15,394.37 75.4,6.9 146.29,3.98 213.91,-0.77z"/>
   <path class="fil3" d="M5716.47 3059.08l-56.88 58.09 -44.75 -152.6c-38.16,94.31 -95.13,172.95 -203.49,208.73 169.58,45.98 289.84,21.4 394.69,-116.01l-33.89 -36.06 -55.68 37.85z"/>
   <path class="fil13" d="M5699.91 1493.05c-29.25,-18.54 -319.26,-145.96 -434.42,-267.59 -98.13,136.64 324.12,233.53 434.42,267.59z"/>
   <path class="fil14" d="M6303.05 1880.65c30.1,-54.28 9.2,-130.95 -36.21,-218.4l66.94 -225.76 -74.78 21.86 -165.44 112.17c-38.51,115.31 1.7,219.72 98.4,316.3l-204.41 404.15c42.49,-7.21 91.61,-29.54 126.52,-51.96 38.72,-24.85 62.06,-64.81 102.25,-120.91 39.55,-55.23 79.28,-123.82 86.73,-237.45z"/>
   <polyline class="fil15" points="4306.25,8712.46 4459.47,8632.63 4253.45,8687.24 4302.21,8788.59 "/>
   <polygon class="fil1" points="5751.5,5511.47 6166.13,5117.91 6169.21,5085.64 5757.84,5488.97 "/>
   <polygon class="fil1" points="5946.7,5554.11 5913.27,5527.36 5755.43,5511.47 5749.33,5535.48 "/>
   <polygon class="fil1" points="6093.89,4500.51 6157.01,4541.73 6142.2,4453.1 "/>
   <polygon class="fil1" points="6390.96,5665.55 6429.19,5666.85 6230.67,5520.28 6217.41,5543.04 "/>
   <path class="fil16" d="M9058.79 7421.97l59.3 22.21 -5.35 -52.17c-2.99,56.97 9.68,39.97 -53.95,29.96z"/>
   <polygon class="fil17" points="5600.86,3945.22 5521.44,3847.6 "/>
   <polygon class="fil18" points="6259,1458.35 6218.88,1394.82 "/>
   <polygon class="fil19" points="6660.33,1468.08 6571.36,1358.1 "/>
   <ellipse class="fil1" cx="6010" cy="5722.84" rx="809.19" ry="116.77"/>
   <ellipse class="fil20" transform="matrix(1.0344 -0.485042 0.485042 1.0344 6189.97 1445.94)" rx="49.48" ry="25.82"/>
   <path class="fil3" d="M5861.54 1682.77l110.89 118.64 -240.16 -78.37c87.34,64.39 193.98,134.07 313.77,125.06 -26.63,-71.17 -101.98,-133.79 -184.5,-165.33z"/>
   <path class="fil3" d="M6275.49 1672.18l17.06 -96.64c-45.42,118.17 -94.96,202.03 -142.42,264.51l26.49 30.88c44.38,-53.41 84.84,-111.19 98.87,-198.75z"/>
   <path class="fil3" d="M5624.38 1731.27c-13.17,-1.85 -40.55,-13.53 -53.71,-15.38 19.25,16.65 46.98,45.99 70.84,60.05 23.85,14.05 47.83,28.68 76.04,38.77 88.55,58.27 198.2,73.64 259.94,126.3 39.03,33.28 21.37,118.56 -11.07,189.22l78.22 10.12 59.43 -199.01 -479.69 -210.07z"/>
   <path class="fil21" d="M5071.13 1710.72c-68.49,-75.9 67.23,-105.67 -9.53,-140.94 -125.66,-57.75 -288.14,-29.79 -378.29,-116.89 -20.73,169.84 290.27,222.73 387.82,257.83z"/>
   <path class="fil22" d="M5483.02 1800.85c-9.11,-134.18 -257.68,-136.22 -367.04,-154.49 79.69,49.49 87.5,104.56 58.4,167.65l308.64 -13.16z"/>
   <path class="fil23" d="M5314.4 1883.63c157.44,27.28 168.87,62.73 125.15,107.94l425.09 -90.3c-136.09,-52.54 -400.98,-76.62 -550.24,-17.64z"/>
   <path class="fil24" d="M5617.97 2018.28c-25.31,74.43 7.65,115.56 97.33,124.27l306.34 -171.56c-100.43,-25.73 -303.24,-6.78 -403.67,47.29z"/>
   <path class="fil23" d="M5345.13 2547.77c28.42,168.38 248.77,-248.13 262.71,-269.37l-201.77 91.45c76.38,44.59 38.99,106.5 -60.94,177.92z"/>
   <path class="fil25" d="M5290.56 2748.92c-116.44,57.65 -81.79,48.27 17.42,55.18l159.24 -133.84 -176.66 78.66z"/>
   <path class="fil25" d="M5464.81 2775.35c-115.83,96.04 -56.22,90.88 38.1,52.23 118.26,-80.77 217,-274.09 264.84,-395.96l-302.94 343.73z"/>
   <path class="fil24" d="M5861.26 2613.09c0.21,93.01 -4.41,79.75 24.83,-5.86l-22.79 -204.69c-24.71,-23.15 -42.31,-26.57 -40.77,23.24l38.73 187.31z"/>
   <path class="fil8" d="M5532.65 8788.7c-16.23,-41.14 -21.03,-81.35 -10.66,-120.28 73.65,7.8 138.39,9.15 184.21,-3.11 10.43,-13.18 11.53,-28.26 2.72,-45.31 -55.31,-12.5 -118.93,-15.07 -188.89,-9.99 -16.26,-36.66 -18.99,-72.19 -4.68,-106.29 62.09,3.68 128.32,3.21 199.21,-1.9 12.01,-18.75 10.7,-39.91 -5.31,-63.77 -85.8,-10.79 -170.08,-10.31 -253.32,0.06 -42.63,119.88 -40.86,282.69 -2.4,403.68 88.21,14.77 173.77,19.09 254.22,2.91 11.49,-14.73 13.54,-31.19 0.69,-50.35 -58.6,-12.46 -117.19,-15.39 -175.79,-5.65z"/>
   <ellipse class="fil0" cx="7725.65" cy="8637.5" rx="116.33" ry="136.01"/>
   <path class="fil7" d="M8356.37 8527.27c116.55,-82.83 67.42,-18.72 201.96,-21.38 -24.98,-150.88 -189.49,-121.76 -285.07,-40.03 -12.55,261.66 109.15,89.63 198.43,261.46 -155.89,88.45 -68.2,-47.11 -202.85,15.5 65.05,135 177.73,126.14 298.55,45.99 26.08,-236.06 -28.8,-133.17 -211.02,-261.54z"/>
  </g>
 </g>
</svg>
