<?xml version="1.0" encoding="UTF-8"?>
<!DOCTYPE svg PUBLIC "-//W3C//DTD SVG 1.1//EN" "http://www.w3.org/Graphics/SVG/1.1/DTD/svg11.dtd">
<!-- Creator: CorelDRAW 2021 (64-Bit) -->
<svg xmlns="http://www.w3.org/2000/svg" xml:space="preserve" width="215.9mm" height="279.4mm" version="1.1" style="shape-rendering:geometricPrecision; text-rendering:geometricPrecision; image-rendering:optimizeQuality; fill-rule:evenodd; clip-rule:evenodd"
viewBox="0 0 21590 27940"
 xmlns:xlink="http://www.w3.org/1999/xlink"
 xmlns:xodm="http://www.corel.com/coreldraw/odm/2003">
 <defs>
  <style type="text/css">
   <![CDATA[
    .fil0 {fill:black}
    .fil2 {fill:#A4A5AA}
    .fil1 {fill:#FEFEFE}
   ]]>
  </style>
 </defs>
 <g id="Capa_x0020_1">
  <metadata id="CorelCorpID_0Corel-Layer"/>
  <path class="fil0" d="M-1779.8 -2991.94l26279.25 0c1354.67,0 2463.03,1108.35 2463.03,2463.04l0 29860.2c0,1354.69 -1108.36,2463.04 -2463.03,2463.04l-26279.25 0c-1354.68,0 -2463.04,-1108.35 -2463.04,-2463.04l0 -29860.2c0,-1354.69 1108.36,-2463.04 2463.04,-2463.04z"/>
 </g>
 <g id="Capa_x0020_1_0">
  <metadata id="CorelCorpID_1Corel-Layer"/>
  <path class="fil0" d="M10614.72 3743.94c2155.52,-93.04 4212.96,590.62 5830.34,1867.86 244.05,192.64 362.08,296.53 589.54,504.33 278.46,254.56 315.45,323.51 545.91,559.22l254.77 297.09c417.44,510.41 782.51,1077.15 1076.94,1673.45 488.7,989.89 891.88,2357.24 891.73,3505.1 0,356.08 15.09,743.41 -11.81,1094.22 -25.05,327.05 -68.59,658.07 -131.61,971.75 -242.81,1209.85 -634.66,2130.95 -1264.19,3132.73 -35.7,56.66 -79.67,111.14 -112.15,163.08 -90.31,144.12 -245.35,337.84 -349.66,479.76 -38.98,53.11 -83.62,104.87 -123.63,151.96 -799.52,940.69 -1639.3,1674.34 -2909.58,2304.83 -2192.65,1088.47 -4967.94,1217.69 -7247.78,241.44 -545.02,-233.53 -984.65,-462.5 -1440.93,-757.54 -389.24,-251.68 -605.78,-429.99 -948.46,-708.79 -101.17,-82.31 -188.97,-175.5 -283.17,-258.03 -308.83,-270.13 -778.28,-806.28 -1040.82,-1168.41 -180.23,-248.77 -281.66,-386.8 -446.25,-658.28 -138.79,-228.82 -264.25,-453.83 -389.52,-703.95 -476.76,-951.75 -851.94,-2231.84 -894.96,-3498.63 -48.18,-1418.33 187.12,-2591.53 653.98,-3750.31 318.87,-791.46 726.82,-1439.57 1217.58,-2085.69l249.29 -302.9c284.05,-329.71 696.24,-747.42 1039.74,-1020.55 508.17,-404.33 804.92,-628.51 1386.87,-949.43 1114.89,-615.06 2399.43,-1021.29 3857.83,-1084.31zm9639.04 9277.98c75.5,-1411.1 -188.49,-2803.14 -661.69,-3951.15 -111.21,-269.72 -227.74,-550.35 -364.89,-792.9 -73.98,-131.01 -131.06,-249.92 -207.17,-376.88 -244.67,-408.23 -405.35,-655.49 -698.56,-1032.37 -197.21,-253.53 -314.28,-380.3 -525.84,-621.69 -258.78,-295.11 -599.7,-589.33 -897.81,-843.82 -172.16,-146.83 -310.2,-250.46 -489.81,-380.51l-515.93 -344.46c-234.49,-143.35 -480.59,-289.5 -741.22,-416.21 -1059.47,-515.25 -2279.64,-899.93 -3655.5,-962.18 -1419.43,-64.24 -2803.83,181.24 -3958.25,662.5 -774.12,322.75 -1571.39,758.35 -2202.57,1270.13 -25.66,20.75 -54.74,43.97 -84.37,64.85l-535.54 462.57c-484.19,463.58 -700.59,700.59 -1098.37,1216.81 -1067.8,1385.57 -1766.82,3250.55 -1848.95,5084.63 -63,1406.45 177.42,2801.51 660.81,3956.67 406.3,970.99 686.87,1407.49 1270.2,2202.64 40.68,55.49 86.34,111.46 126.35,160.68 245.07,300.98 554.31,637.13 835.08,895.98 214.63,197.9 325.08,297.63 544.07,475.19 502.36,407.47 1080.57,778.76 1666.62,1073.05 2907.31,1460.11 6426.69,1261.26 9138.44,-489.59 278.32,-179.68 596.77,-402.91 837.4,-607.22 52.08,-44.17 101.3,-87.38 157.69,-129.23l304.39 -269.43c288.08,-243.03 864.57,-901.92 1097.76,-1216.47 316,-426.12 623.26,-897.82 886.08,-1429.27 530.55,-1072.85 886.75,-2264.61 961.58,-3662.32z"/>
  <path class="fil0" d="M10512.67 4086.01c303.7,-21.09 733.91,-16.85 1039.13,1.58 1677.87,100.96 3323.45,725.99 4617.55,1736.11 99.94,77.94 200.43,149.49 295.85,235.03 48.2,43.21 98.85,80.89 143.09,122.54l534.64 516.96c56.67,58.03 82.67,93.24 128.48,137.35 142.95,137.42 347.94,405.77 477.57,573.83 615.01,797.12 1132.18,1790.72 1413.5,2813.45 334.42,1216.07 310.05,1682.32 301.8,2873.39 -5.4,777.06 -317.23,1918.05 -583.61,2591.81 -183.36,463.92 -449.52,992.84 -715.75,1397.92 -74.2,112.99 -140.41,212.78 -213.19,317.84 -72.96,105.33 -152.29,205.48 -223.77,307.67l-360.36 435.4c-135.44,145.32 -235.66,263.01 -380.93,405.35l-702.44 625.09c-375.93,310.47 -1031.54,726.47 -1440.78,927.11 -493.49,241.92 -946.5,422.01 -1520.05,593.77 -528.38,158.09 -1236.75,288.96 -1824.44,288.96 -791.39,0 -1227.26,38.02 -2017.42,-107.18 -1088.21,-199.94 -2140.38,-616.09 -3032.53,-1193.61 -372.03,-240.84 -580.86,-397.98 -916.31,-677.05 -513.97,-427.67 -871.12,-835.14 -1280.58,-1353.2 -281.04,-355.46 -609.39,-900.01 -812.62,-1300.45 -1074.55,-2117.56 -1207.12,-4729.63 -300.15,-6956.49 215.71,-529.6 441.05,-949.84 716.56,-1396.9 200.23,-324.67 311.02,-442.22 497.05,-703.47l177.82 -214.63c155.92,-183.49 331.01,-378.59 503.31,-548.36l271.77 -259.54c44.58,-49.97 86.9,-70.66 141.44,-123.44 228.89,-221.03 825.32,-640.86 1060.42,-787.9 220.91,-138.24 438.26,-254.09 671.66,-380.3 982.87,-531.85 2190.87,-818.9 3333.29,-898.64zm194.62 -231.95c-669.68,26.07 -1282.42,116.39 -1898.5,275.85 -976.05,252.65 -1802.81,641.01 -2622.45,1178.93 -271.02,177.83 -597.6,430.34 -854.06,644.14l-351.78 327.54c-95.77,90.17 -185.67,180.63 -275.1,277.22 -54.2,58.57 -55.91,47.04 -129.84,135.02l-375.59 442.43c-98.64,114.83 -377.57,510 -455.4,627.97 -274.83,416.14 -540.37,901.16 -756.98,1420.03 -442.56,1060.02 -726.33,2358.55 -667.29,3670.73 29.22,650.63 113.59,1294.64 275.58,1891.61 224.12,825.94 527.01,1568.1 968.68,2291.64 280.5,459.56 669.62,990.52 1044.65,1398.61l136.26 139.67c141.44,160.28 283.3,264.6 413.62,403.65 43.61,46.49 105.19,84.31 149.09,127.72 197.49,195.79 709.67,560.32 923.01,701.9 1458.06,967.92 3226.86,1487.82 5087.14,1425.71 1697.87,-56.87 3199.08,-587.08 4517.55,-1454.32l775.08 -584.27c133.04,-107.65 164.58,-147.59 285.81,-255.44 51.54,-45.88 93.59,-85.75 143.64,-132.92l657.32 -701.9c123.42,-130.87 477.64,-630.35 578.33,-780.74 273.81,-408.77 545.99,-910.64 756.85,-1420.44 442.48,-1070.12 727.02,-2345.45 667.84,-3668.68 -29.64,-662.04 -114.42,-1287.2 -275.25,-1893.67 -242.34,-913.58 -653.29,-1860.62 -1179.41,-2622.79l-228.14 -323.99c-38.22,-46.21 -70.86,-99.39 -113.32,-152.63l-177.75 -225.75c-139,-184.25 -587.56,-644.42 -730.3,-777.88l-133.94 -130.99c-49.49,-43.14 -97.82,-78.17 -147.18,-129.37l-296.06 -245.34c-101.51,-83.49 -200.02,-151.96 -308.69,-232.99 -485.02,-362.07 -1168.28,-741.29 -1739.38,-979.52 -1075.24,-448.64 -2342.3,-718.01 -3664.04,-666.74z"/>
  <path class="fil1" d="M10566.87 4309.51c1259.21,-73.1 2479.1,164.59 3519.52,581.14 629.81,252.24 1126.57,531.37 1670.85,909.9 249.16,173.26 487.75,370.2 718.21,567.01 51.33,43.95 83.68,80.82 130.79,123.69 93.11,84.65 182.88,159.61 269.71,250.87l246.98 262.28c40.63,49.15 79.94,95.9 120.69,146.08 20.21,24.85 39.39,40.07 60.9,66.02 177.55,214.68 345.62,423.91 502.08,655.12 829.08,1224.74 1353.22,2622.4 1437.59,4222.99 95.84,1818.98 -376.75,3440.13 -1281.6,4884.54 -187.05,298.73 -337.09,484.54 -541.27,754.87l-234.35 275.38c-45.19,54.2 -78.85,81.31 -123.98,130.18 -74.88,81.37 -152.63,168.33 -251.21,269.51 -86.63,88.87 -176.87,150.25 -263.84,245.55 -143.08,156.8 -658.34,539.63 -864.78,685.84 -97.61,69.16 -200.55,134.48 -308.42,201.45 -210.05,130.46 -427.94,252.31 -660.59,370.14 -2724.72,1379.08 -5968.04,1112.02 -8450.14,-624.97l-372.78 -275.38c-27.03,-21.02 -39.26,-36.58 -68.34,-58.57 -212.78,-161.78 -422.56,-362.55 -609.4,-548.36l-436.35 -466.93c-142.86,-165.41 -195.77,-222.13 -344.12,-420.11 -161.1,-215.03 -273.46,-379.33 -420.3,-609.87 -1396.62,-2193.28 -1623.67,-5008.51 -655.48,-7439.69 102.47,-257.27 213.32,-482.62 323.24,-707.49 170.93,-349.44 575.13,-980.27 802.99,-1256.75l353.2 -422.08c42.26,-48.12 66.84,-92.7 117.41,-137.41 87.65,-77.89 149.03,-160.97 258.32,-262.2l258.73 -250.54c45.46,-41.5 99.93,-79.25 142.59,-123.76 28,-29.22 36.26,-34.62 69.36,-57.96l208.56 -173.25c1301.39,-1026.98 2889.97,-1663.62 4675.23,-1767.24zm-54.2 -223.5c-1142.42,79.74 -2350.42,366.79 -3333.29,898.64 -233.4,126.21 -450.75,242.06 -671.66,380.3 -235.1,147.04 -831.53,566.87 -1060.42,787.9 -54.54,52.78 -96.86,73.47 -141.44,123.44l-271.77 259.54c-172.3,169.77 -347.39,364.87 -503.31,548.36l-177.82 214.63c-186.03,261.25 -296.82,378.8 -497.05,703.47 -275.51,447.06 -500.85,867.3 -716.56,1396.9 -906.97,2226.86 -774.4,4838.93 300.15,6956.49 203.23,400.44 531.58,944.99 812.62,1300.45 409.46,518.06 766.61,925.53 1280.58,1353.2 335.45,279.07 544.28,436.21 916.31,677.05 892.15,577.52 1944.32,993.67 3032.53,1193.61 790.16,145.2 1226.03,107.18 2017.42,107.18 587.69,0 1296.06,-130.87 1824.44,-288.96 573.55,-171.76 1026.56,-351.85 1520.05,-593.77 409.24,-200.64 1064.85,-616.64 1440.78,-927.11l702.44 -625.09c145.27,-142.34 245.49,-260.03 380.93,-405.35l360.36 -435.4c71.48,-102.19 150.81,-202.34 223.77,-307.67 72.78,-105.06 138.99,-204.85 213.19,-317.84 266.23,-405.08 532.39,-934 715.75,-1397.92 266.38,-673.76 578.21,-1814.75 583.61,-2591.81 8.25,-1191.07 32.62,-1657.32 -301.8,-2873.39 -281.32,-1022.73 -798.49,-2016.33 -1413.5,-2813.45 -129.63,-168.06 -334.62,-436.41 -477.57,-573.83 -45.81,-44.11 -71.81,-79.32 -128.48,-137.35l-534.64 -516.96c-44.24,-41.65 -94.89,-79.33 -143.09,-122.54 -95.42,-85.54 -195.91,-157.09 -295.85,-235.03 -1294.1,-1010.12 -2939.68,-1635.15 -4617.55,-1736.11 -305.22,-18.43 -735.43,-22.67 -1039.13,-1.58z"/>
  <path class="fil1" d="M10707.29 3854.06c1321.74,-51.27 2588.8,218.1 3664.04,666.74 571.1,238.23 1254.36,617.45 1739.38,979.52 108.67,81.03 207.18,149.5 308.69,232.99l296.06 245.34c49.36,51.2 97.69,86.23 147.18,129.37l133.94 130.99c142.74,133.46 591.3,593.63 730.3,777.88l177.75 225.75c42.46,53.24 75.1,106.42 113.32,152.63l228.14 323.99c526.12,762.17 937.07,1709.21 1179.41,2622.79 160.83,606.47 245.61,1231.63 275.25,1893.67 59.18,1323.23 -225.36,2598.56 -667.84,3668.68 -210.86,509.8 -483.04,1011.67 -756.85,1420.44 -100.69,150.39 -454.91,649.87 -578.33,780.74l-657.32 701.9c-50.05,47.17 -92.1,87.04 -143.64,132.92 -121.23,107.85 -152.77,147.79 -285.81,255.44l-775.08 584.27c-1318.47,867.24 -2819.68,1397.45 -4517.55,1454.32 -1860.28,62.11 -3629.08,-457.79 -5087.14,-1425.71 -213.34,-141.58 -725.52,-506.11 -923.01,-701.9 -43.9,-43.41 -105.48,-81.23 -149.09,-127.72 -130.32,-139.05 -272.18,-243.37 -413.62,-403.65l-136.26 -139.67c-375.03,-408.09 -764.15,-939.05 -1044.65,-1398.61 -441.67,-723.54 -744.56,-1465.7 -968.68,-2291.64 -161.99,-596.97 -246.36,-1240.98 -275.58,-1891.61 -59.04,-1312.18 224.73,-2610.71 667.29,-3670.73 216.61,-518.87 482.15,-1003.89 756.98,-1420.03 77.83,-117.97 356.76,-513.14 455.4,-627.97l375.59 -442.43c73.93,-87.98 75.64,-76.45 129.84,-135.02 89.43,-96.59 179.33,-187.05 275.1,-277.22l351.78 -327.54c256.46,-213.8 583.04,-466.31 854.06,-644.14 819.64,-537.92 1646.4,-926.28 2622.45,-1178.93 616.08,-159.46 1228.82,-249.78 1898.5,-275.85zm-92.57 -110.12c-1458.4,63.02 -2742.94,469.25 -3857.83,1084.31 -581.95,320.92 -878.7,545.1 -1386.87,949.43 -343.5,273.13 -755.69,690.84 -1039.74,1020.55l-249.29 302.9c-490.76,646.12 -898.71,1294.23 -1217.58,2085.69 -466.86,1158.78 -702.16,2331.98 -653.98,3750.31 43.02,1266.79 418.2,2546.88 894.96,3498.63 125.27,250.12 250.73,475.13 389.52,703.95 164.59,271.48 266.02,409.51 446.25,658.28 262.54,362.13 731.99,898.28 1040.82,1168.41 94.2,82.53 182,175.72 283.17,258.03 342.68,278.8 559.22,457.11 948.46,708.79 456.28,295.04 895.91,524.01 1440.93,757.54 2279.84,976.25 5055.13,847.03 7247.78,-241.44 1270.28,-630.49 2110.06,-1364.14 2909.58,-2304.83 40.01,-47.09 84.65,-98.85 123.63,-151.96 104.31,-141.92 259.35,-335.64 349.66,-479.76 32.48,-51.94 76.45,-106.42 112.15,-163.08 629.53,-1001.78 1021.38,-1922.88 1264.19,-3132.73 63.02,-313.68 106.56,-644.7 131.61,-971.75 26.9,-350.81 11.81,-738.14 11.81,-1094.22 0.15,-1147.86 -403.03,-2515.21 -891.73,-3505.1 -294.43,-596.3 -659.5,-1163.04 -1076.94,-1673.45l-254.77 -297.09c-230.46,-235.71 -267.45,-304.66 -545.91,-559.22 -227.46,-207.8 -345.49,-311.69 -589.54,-504.33 -1617.38,-1277.24 -3674.82,-1960.9 -5830.34,-1867.86z"/>
  <path class="fil1" d="M11402.5 17894.16l5.19 -305.88c40.27,14.6 356.2,343.63 433.88,422.35 116.87,118.36 120.02,56.18 102.68,426.58l-1723.21 -0.82c7.45,-48.05 170.25,-187.93 204.24,-222.19 74.96,-75.3 142.27,-142.82 217.16,-218.32 126.29,-127.24 86.77,-100.96 325.48,-100.55 138.1,0.13 299.21,7.64 434.58,-1.17zm1010.44 214.69l12.64 -52.83c-15.57,23.55 -12.49,16.04 -12.64,52.83zm52.44 -182.05c1.77,2.39 3.55,3.48 3.96,7.99l7.79 26.34c4.02,39.32 -44.8,252.66 -54.28,285.21 -35.84,123.15 -69.97,168.9 -121.85,271.84 -54.68,108.53 -211.56,279.68 -311.97,367.8l-54.68 51.61c108.4,-39.45 293.54,-262.68 356.27,-376.75 23.83,-43.28 16.72,-44.37 60.35,-54.06l15.9 29.42c0.41,2.05 0.88,5.39 0.95,7.57 0.83,27.51 4.17,9.83 -30.84,63.35 -155.18,237.08 -331.44,366.58 -566.81,505.43 -234.29,138.3 -714.45,215.79 -1029.9,126.7 -336.14,-94.95 -519.77,-225.41 -746.34,-475.25 -81.38,-89.85 -109.63,-141.1 -139.61,-234.71l-29.49 -30.1c-53.11,-54.6 -111.27,-255.23 -134.61,-333.74 -23.62,-79.53 -39.19,-175.85 -40.97,-270.8 105.28,4.91 109.31,15.28 121.45,86.28 48.33,283.23 142.26,403.38 147.32,437.78 6.62,45.12 10.57,14.82 -7.65,40.75 34.88,19.19 2.11,-47.51 110.86,118.37 74.55,113.6 290.2,321.12 402.42,394.17 122.61,79.8 195.71,127.37 376.07,152.5 226.09,31.47 204.73,54.34 485.63,24.64 119.61,-12.7 310.81,-72.57 405.23,-115.64 255.24,-116.52 409.11,-269.43 554.85,-507.55 85.33,-139.32 23.48,-19.39 90.45,-175.23 19.52,-45.47 62.66,-151.41 65.66,-199.81l-56.38 135.1c-19.18,50.24 -40.14,94.95 -56.66,134.68 -48.2,-14.53 -136.32,-108.41 -157.14,-152.43 36.18,-78.3 219.54,-209.24 276.13,-291.7 16.73,20 9.82,3.89 15.63,36.87 0.61,3.54 -0.07,35.21 0,42.25 20.48,-41.3 9.7,-88.81 42.26,-128.88zm-52.44 182.05c-14.4,20.29 -10.98,23.36 -11.4,42.06 1.37,-1.97 4.03,-7.17 4.37,-5.8l7.03 -36.26zm-2649.74 126.64c16.65,100.89 128.67,312.24 210.86,400.37 123.9,132.92 203.7,281.86 418.19,388.7 285.27,141.93 473.49,211.42 833.11,180.97 168.67,-14.2 506.99,-81.37 611.44,-203.29 -144.59,42.25 -196.6,139.05 -614.52,178.78 -288.96,27.44 -451.3,-22.18 -687.91,-107.65 -106.28,-38.36 -179.73,-85.4 -250.26,-142.81 -159.8,-129.97 -281.59,-259.88 -382.75,-446.05l-7.85 -13.09c-96.74,-145.34 -58.09,-115.72 -104.99,-202.01 -1.23,-2.32 -2.59,-4.98 -3.96,-7.23 -1.37,-2.18 -3.07,-4.78 -4.51,-6.96 -11.06,-16.18 -4.09,-7.98 -16.85,-19.73zm2095.65 744.15c19.11,11.88 10.84,16.04 59.52,-26.49 14.07,-12.28 9.77,-8.73 15.98,-15.56 -2.52,1.1 -6.28,0.2 -7.38,3.55l-27.64 15.35c-17.82,10.79 -22.05,14.28 -40.48,23.15zm-459.9 -1851.2l-4.51 -110.11c-10.99,99.26 15.57,155.98 -19.86,209.16l1.23 3.35 -8.06 13.65c4.51,18.99 8.4,15.64 -10.52,11.47 3.29,18.16 6.98,14.6 -10.91,10.38 3.54,17.33 6.2,12.84 -11.75,9.42 2.74,16.52 6.62,13.52 -9.42,11.13 4.64,18.97 8.54,15.63 -10.38,11.46 3.69,17.62 6.98,13.79 -10.91,10.37 3.34,17.75 6.54,13.73 -11.55,9.98 2.68,16.44 5.61,12.36 -11.53,9.48 2.39,16.12 5.67,12.43 -10.64,10.31 2.59,17.41 7.44,15.09 -8.6,12.3 4.77,19.11 8.94,15.89 -10.04,11.74 -2.05,1.64 -4.78,2.11 -6.07,5.32 -1.37,3.4 -5.13,4.09 -7.04,4.71 -7.98,2.86 -20.48,5.8 -29.83,7.04 -20.34,43.19 -357.03,358.72 -433.21,441.19 -80.28,86.97 -101.3,31.47 -249.3,45.46l-24.3 2.39c-164.73,-13.18 -597.87,25.11 -720.12,-8.68l-20.14 4.44c-33.52,1.24 -12.5,8.88 -40.21,-5.12l-32.97 -33.51c-8.74,36.65 5.05,32.21 -34.54,37.07l429.18 -436.9c23.61,-23.9 78.49,-90.38 112.9,-97.34 73.39,-14.89 606.06,19.72 633.43,-5.33 37.54,-72.98 -3.14,-210.94 14,-300.36l-2.54 -32.3c-5.86,-81.43 -2.86,-179.73 -2.66,-262.88 0.21,-70.03 -4.37,-60.75 34.62,-94.96 102.4,-89.77 124.91,-158.31 232.51,-163.29 49.83,-2.39 205.88,10.65 227.8,4.03 -68.13,-28.74 -209.85,-11.06 -285.22,-4.1 15.23,-48.05 -5.18,-17.12 35.1,-51.4 55.28,-47.03 49.42,-59.52 96.59,-93.79 57.41,-41.71 24.57,-17.4 61.43,-66.35 18.44,-24.37 42.88,-42.19 63.09,-61.31 24.57,11.13 39.72,22.8 56.45,45.05 74.06,98.78 -73.73,59.94 -129.23,59.47 34.4,24.37 92.78,24.91 147.18,38.84l-3.2 619.9c41.22,-14.67 14.06,3.49 20.26,-39.04 4.72,-32.62 -10.44,-347.61 5.81,-447.4l-1.44 -22.73 2.87 -32.64 19.94 -76.79c1.63,0 5.05,0.2 6.96,0.34l45.05 8.67 48.26 18.15 13.87 -6.89c34.87,8.94 9.08,0.27 18.97,17.21 339.21,124.71 518.81,283.15 704.69,512.32 25.61,31.4 42.26,62.8 66.16,92.9 24.03,30.45 39.17,46.15 62.39,86.29 46.83,80.83 54.74,128 84.99,223.23 40.68,128.13 97.2,377.85 89.56,522.64 -25.52,17.12 -32.08,16.51 -46.96,48.32 22.59,-12.28 23.54,-21.78 52.35,-30.45 0.54,96.2 -19.53,309.32 -49.49,392.73 -24.1,66.77 -89.22,267.06 -139.05,298.53 -19.33,-13.94 -0.89,18.43 -23.83,-21.37 -12.22,-21.3 -5.19,-37.55 9.97,-68.53 80.69,-164.73 50.44,-101.45 97.27,-284.68 21.99,-86.29 19.94,-148.67 32.37,-232.84 7.5,-50.86 15.49,-20.69 8.6,-61.37 -8.47,-49.84 2.59,-29.91 3.76,-76.94 1.36,-54.34 -12.7,-56.11 -12.7,-56.11 0.47,92.49 -3.97,112.9 -24.17,190.32 -13.59,-14.6 -17.68,-12.15 -21.02,-59.25 -9.63,-136.12 0.68,-167.79 -33.33,-344.05 -12.48,-64.65 -32.69,-114.9 -54.33,-169.78l-58.44 -132.43c-0.81,-1.17 -3.96,-2.25 -4.5,-5.54 -0.61,-3.2 -3,-3.67 -4.71,-5.32 9.84,83.01 77.01,188.41 96.73,284.19 19.66,95.15 80.07,414.77 11.19,490.88l-288.35 278.39c-50.44,-27.1 -89.9,-95.1 -149.55,-129.97l4.3 -1328.16c39.65,11.67 68.73,52.56 100,87.24 125.33,138.72 129.5,160.28 207.32,292.32l18.36 25.11c-19.19,-88.88 -118.85,-204.86 -159.19,-256.74 -128.21,-164.39 -178.24,-129.23 -167.93,-246.77 23.34,5.79 10.45,1.98 28.74,13.58l114.55 100.69c-16.53,-28.88 -115.31,-103.97 -133.26,-122.26l-14.26 -17.69c-8.4,-10.09 1.42,-7.37 -19.04,-21.64 -13.46,15.85 -18.85,24.24 -33.94,37.28l-500.72 505.09 -11.33 -60.42zm-1438.62 1298.74l-23.34 -20.55c-47.17,-121.45 -115.56,-213.53 -139.39,-361.33 -18.92,-35.09 -24.51,-69.76 -13.79,-108.88 -2.32,-2.87 -5.94,-11.33 -5.74,-9.56 0.14,1.65 -3.62,-7.03 -3.13,-9.21 8.52,-37.48 -23.36,-5.18 14.8,-24.98l667.16 1.15 46.63 0 193.52 3.35 -478.19 482.23c-29.42,29.96 -52.16,37.87 -58.85,80.06l1806.22 0 0.07 -316.26c28.33,9.42 55.36,47.78 77.13,69.42l224.8 225.69c-47.03,173.73 -301.12,383.23 -445.15,483.24 -138.99,96.52 -488.24,216.88 -717.06,214.08 -253.12,-3.15 -566.52,-98.91 -713.84,-217.23 -21.64,-17.4 -33.85,-33.1 -55.43,-50.17 -113.86,-89.7 -347.61,-340.84 -376.42,-441.05zm1293.49 -1039.2c-5.46,-20.88 -11.54,-18.7 8.12,-14.88 -4.09,-17.94 -7.16,-13.79 11.27,-10.57 -1.37,-14.62 -4.37,-10.79 10.78,-9.84 -2.45,-16.86 -6.89,-14.13 8.95,-12.22 -3.29,-17.47 -6.56,-13.44 11.19,-10.58 -1.71,-15.7 -5.13,-12.08 10.64,-10.3 -2.25,-16.05 -5.73,-12.43 10.32,-10.79 -2.39,-16.32 -5.95,-12.77 10.31,-11.06 -2.19,-17 -5.61,-13.11 11.6,-10.04 -1.71,-16.58 -4.3,-11.47 13.99,-8.33 12.91,-50.37 19.46,3.76 20,5.13l5.81 33.18c10.3,38.97 6.76,89.69 5.46,132.83 -2.94,100.36 -17.14,29.9 -3.83,126.49 9.01,65.88 14.95,238.79 -7.57,296.07 -94.68,2.19 -551.11,12.08 -598.55,-12.01 7.99,-33.65 11.94,-25.94 46.83,-60.83l372.12 -371.02c34.74,-32.96 33.65,-17.6 52.56,-41.23zm-1586.4 414.92c-30.31,-27.52 -4.16,11.6 -16.19,-24.64 -10.57,-31.82 -1.22,-80.42 -0.27,-115.24 3.69,-130.38 3.15,-133.19 38.23,-269.92 15.29,-59.52 24.1,-68.05 88.68,-65.67 -7.64,86.84 -66.14,143.9 -79.6,363.37 -4.44,72.71 3.69,66.7 -30.85,112.1zm50.31 -59.26c-7.64,-63.68 28.33,-295.31 65.12,-372.78 39.94,-83.91 56.94,-22.05 89.56,-30.79 85.48,-23.02 138.92,-12.64 251.7,-11.75 -6.15,22.18 -361.94,374.64 -406.38,415.32zm66 -115.56c13.8,-17.63 72.17,-244.19 78.52,-276.21 -47.46,71.75 -50.32,182.33 -78.52,276.21zm-594.44 -298.26l470.62 -2.11c-20.89,155.78 -47.92,228 -46.21,427.4 -30.79,-12.76 -14.14,-4.51 -34.01,-19.94l-185 -187.64c-47.02,-47.59 -189.29,-166.85 -205.4,-217.71zm1487.76 -484.54c38.7,26.62 125.2,111.54 131.68,159.39 6.08,45.68 4.44,248.09 -2.79,292.94l-588.44 0.81c14.53,-36.24 181.1,-188.41 221.04,-228.61 45.12,-45.41 189.49,-204.11 238.51,-224.53zm8.4 -21.36c22.12,-40.55 81.09,-103.84 125.33,-117.83l-1.64 241.66c-36.11,-15.37 -74.07,-54.75 -100.96,-86.69 -17.62,-20.76 -2.12,-1.1 -14.4,-20.29l-8.33 -16.85zm-894 476.55l-64.64 -0.88c11.73,-65.14 124.92,-253.61 167.65,-316.75l167.53 -204.94c14.34,-11.46 21.3,-18.9 46.35,-20.2 9.89,-0.48 19.66,0.89 29.01,4.09 32.02,10.52 3.75,-5.67 25.8,15.16 -146.35,76.52 -308,422.83 -371.7,523.52zm-225.41 -1.98l-380.03 -0.07c-32.62,-2.45 -48.59,-7.91 -70.93,-28.4 13.31,-57.35 252.8,-275.72 309.32,-332.79 41.36,-41.91 117.34,-128.88 158.1,-160.08 46.56,-35.49 323.92,-18.56 425.29,-14.88 -32.44,54.89 -63.9,78.57 -106.03,131.68 -56.92,71.82 -144.5,223.91 -180.9,307.54 -49.76,114.34 -12.21,97 -154.82,97zm-495.52 -64.65c-70.05,-105.67 -427.96,-401.86 -453.15,-473.2l938.57 0.68c-18.02,47.64 -189.77,202.67 -232.17,245.21 -55.02,55.08 -187.72,210.66 -253.25,227.31zm2875.08 847.44c-39.45,-14.2 -407.8,-390.95 -467.12,-450.88 -88.27,-89.17 -70.86,-71.83 -71.2,-232.93 -0.34,-160.75 -21.02,-150.11 68.39,-235.58l434.85 -425.08c1.78,-1.44 4.17,-3.42 5.95,-4.79l28.32 -26.27c-23.55,109.02 1.03,13.58 1.37,149.84l-0.56 1225.69zm-1827.5 -1351.58c25.18,-36.23 84.24,-83.89 124.38,-100l-11.67 96.53 -112.71 3.47zm495.87 -246.97c53.25,-65.6 99.73,-115.5 196.13,-121.1 3.68,119.74 -2.81,68.12 -86.7,112.7l85.33 -13.86c4.17,55.16 14.68,50.39 -32.69,66.15 -6.08,1.99 -53.33,9.76 -62.26,23.07l97.14 -18.22c-1.78,116.73 14.95,105.26 -51,169.5 -33.72,32.76 -70.31,82.05 -115.02,101.44 -22.95,-39.73 -56.11,-64.44 -89.97,-96.32 -34.75,-32.91 -48.47,-61.5 -86.16,-94.48l-20.88 53.17c60.06,-10.23 96.93,42.68 172.98,123.98 1.57,1.64 3.96,4.37 5.33,5.79l15.5 18.85c-39.4,55.3 -114.76,121.1 -163.1,169.16 -41.57,41.3 -284.66,311.49 -339.27,317.23 -79.67,8.25 -231.89,-0.47 -319.14,-0.96 5.12,-52.71 142.81,-258.31 180.28,-316.4 34.48,-53.45 66.5,-96.74 105.48,-139.27 96.12,-104.79 101.37,-76.11 152.91,-89.14l13.45 -42.19c10.58,-63.7 -23.48,-71.68 11.6,-115.24 38.78,-48.13 342.01,-194.35 394.03,-203.7l-49.97 59.87c-50.85,49.22 -79.53,88.6 -172.17,117.97 74.76,30.84 49.83,-0.9 123.84,-39.53 44.65,-23.22 106.84,-32.35 142.73,-61.58l-119.25 27.1 10.85 -13.99zm99.54 65.66c-51.47,5.81 -177.7,46.15 -214.64,83.84l214.64 -83.84zm-225.63 53.12c38.99,3.75 -5.05,-22.87 -11.52,-1.77 -7.79,25.73 10.44,1.56 11.52,1.77zm-30.23 -22.33c-37.28,10.11 -63.62,30.72 -100.08,53.18l100.08 -53.18zm-9.76 85.6c-36.67,5.88 -191.42,120.42 -200.23,135.04l200.23 -135.04zm-800.06 67.24c19.73,-42.18 28.13,-39.11 72.96,-82.59l223.37 -222.48c40.56,-41.9 266.51,-276.66 297.09,-286.77l-0.21 120.89c-1.49,326.99 30.59,283.1 -83.07,379.42 -128.35,108.94 -137.21,89.83 -347.67,89.29l-162.47 2.24zm1194.28 -375.31c61.65,-35.83 214.29,-35.49 298.26,-46.21 -26.91,64.44 -60.29,67.78 -102.82,116.05 -62.6,71.06 -50.17,31.74 -129.23,61.44l-13.3 7.17c32.83,1.69 47.24,-7.86 75.83,-15.64 -18.56,42.74 -89,108.06 -133.04,135.77 0.48,-89.07 -18.43,-95.63 61.79,-111.12 -62.4,-27.66 -20.82,11.46 -61.04,-9.42l1.1 -58.79c70.79,1.78 107.58,-13.58 165.81,-32.48l-168.07 21.02 4.71 -67.79zm-572.26 -148.75c-0.68,-145.74 18.43,-126.22 93.53,-200.89l389.44 -385.16c26.02,-28.94 16.65,-32.42 55.84,-51.27l1.24 584.29c0.54,105.06 7.37,130.04 -60.28,174.28 -52.3,34.13 -111.55,39.58 -176.19,58.97 -80.01,23.97 -267.67,146.15 -304.39,149.44l0.81 -329.66zm1056.88 -37.21c28.4,-25.8 9.55,-22.04 53.86,-28.12l-9.08 87.04c-25.88,-18.02 -30.79,-21.17 -44.78,-58.92zm-2815.65 560.81c10.04,-32.36 738.9,-749.76 825.94,-837.54 95.15,-95.78 802.25,-813.99 846.81,-833.45 35.77,48.81 56.4,29.69 57.55,116.66l-0.41 712.21c0.14,101.37 16.94,184.24 -28.6,232.09l-474.37 470.69c-150.32,144.46 -93.8,137.09 -235.64,137.36 -267.13,0.2 -782.93,-11.13 -991.28,1.98zm3537.68 -1712.77l17.26 4.71 17.35 -5.93c88.54,3 84.92,32.5 133.46,79.67 181.1,176.38 1485.97,1461.06 1522.09,1525.03 -16.05,45.05 -57.07,69.07 -89.15,101.09l-607.56 624.55c9.84,-11.4 10.79,-11.4 21.09,-21.64l239.89 -237.97c56.38,-53.99 435.26,-420.57 456.69,-466.03 -66.77,-95.65 -304.46,-305.08 -400.92,-405.3 -261.79,-271.89 -536.22,-533.34 -803.55,-799.86 -106.07,-105.87 -291.41,-313.67 -400.3,-395.38 180.9,-21.64 468.37,-4.57 660.74,-4.57 513.83,0 4527.04,13.72 4586.22,-6.89 -8.12,-67.8 -80.69,-39.67 -189.43,-40.01l-6542.08 -0.13c-74.34,0 -148.67,0 -223.01,0.05 -114.22,0.29 -147.72,22.54 -195.11,-31.12 -36.72,43.76 -69.83,31.47 -144.71,31.54l-2686.97 -0.47c-895.5,0 -1791.54,8.72 -2687.1,0 -60.95,-0.69 -125.4,-17.82 -109.02,41.22 69.16,20 5381.91,6.15 5426.29,5.88 -14.89,37.94 -20.75,35.08 -50.93,63.62 -18.84,17.74 -29.83,28.46 -48.73,46.62l-303.17 302.28c-370.34,366.58 -835.02,854.46 -1201.11,1193.26l54.87 43.75c-17.95,62.4 -42.73,54.08 -44.98,85.55 43.07,15.43 84.44,-3.22 127.99,12.01 39.4,13.92 177.5,168.54 211.42,202.75 59.05,59.52 242.76,226.63 273.94,281.66 -13.85,35.28 -58.57,63 -40.19,67.92 42.86,24.3 81.02,1.16 128.46,20.13 47.11,18.85 186.5,179.74 227.11,219.81 110.67,109.36 291.77,242.01 202.62,315.74 25.32,58.09 24.44,-11.54 30.11,87.1 2.25,38.98 0.41,76.46 4.71,115.09 9.76,88.07 66.29,263.16 98.37,346.78 26.69,69.36 61.43,80.08 69.49,161.46 -39.53,20.41 -315.79,294.69 -332.03,334.83l1228.07 1218.72c-28.33,-52.42 -794.33,-805.11 -900.9,-909.07 -54.67,-53.25 -101.37,-99.18 -155.02,-153.05 -136.67,-137.14 -197.96,-126.49 -72.15,-250.18l240.84 -232.12c34.19,28.96 33.51,50.12 58.16,85.61 21.63,31.2 38.43,41.64 58.77,67.99 43.49,56.05 67.65,80.69 120.15,135.04 39.53,40.95 91.75,76.11 135.51,119.73 206.97,206.42 605.63,334.7 944.64,330.26 232.23,-2.93 410.26,-68.47 619.36,-145.4 153.94,-56.67 333.34,-200.02 446.52,-317.84 27.51,-28.6 22.26,-42.66 52.77,-74.75 130.24,-136.87 112.03,-140.14 171,-207.67 36.11,15.02 26.41,10.52 54.14,39.12l121.99 121.65c40.61,39.25 137.14,117.55 153.52,170.53 -32.35,55.49 -245.69,252.38 -307.53,313.94 -116.86,116.53 -869.55,847.37 -903.49,912.5 110.66,-93.46 207.53,-203.64 311.23,-304.73l616.01 -615.96c64.24,-66.48 240.64,-223.3 291.08,-293.54 9.77,-13.65 7.92,-29.28 20.83,-13.85 -30.18,-23.34 -305.15,-289.45 -338.06,-348.83 21.65,-51.81 47.25,-86.02 69.78,-149.91 17.41,-49.36 30.99,-101.65 48.27,-153.26 15.75,-47.1 22.31,-114.68 34.67,-166.98 27.44,-116.58 -21.29,-272.03 58.09,-345.75 66.21,-61.31 131.55,-147.05 202.89,-199.89 23.54,-17.4 47.1,-25.59 81.7,-28.86 15.5,-1.51 37.82,-1.51 53.12,1.22l26.62 8.6c6.69,-10.72 74.27,68.88 -103.5,342.01 -31.05,47.78 -60.95,90.17 -96.17,137 -51.82,69.22 -44.17,91.48 -38.58,194.42l427.69 0.27c3.61,-44.44 18.7,-129.01 -26.29,-139.05l-93.93 -4.03c-37.14,0.49 -74.47,1.1 -111.61,-0.54 0.41,-65.19 217.01,-242.76 215.44,-461.6 -0.89,-133.33 -15.77,-181.94 -132.16,-208.76 -60.89,-14.06 -210.6,-7.78 -263.91,42.12 21.22,61.36 10.11,65.12 50.03,115.5 -56.38,40.69 -115.85,110.45 -165.88,163.09 -5.59,5.86 -22.59,23.95 -25.93,26.83 -30.32,25.12 -4.17,9.69 -40.48,24.44 -2.95,-327.95 -127.67,-725.66 -352.73,-971.82 -34.95,-38.3 -59.26,-44.71 -91.75,-77.89 -77.89,-79.39 -175.31,-159.6 -273.46,-215.17 -70.32,-39.73 -141.52,-85.48 -214.5,-114.83 -32.9,-13.16 -226.91,-78.03 -251.75,-80.55l-4.98 -222.6c-58.37,6.01 -60.35,41.49 -110.26,75.84 7.65,19.24 9.84,13.99 -11.26,11.94 -134.82,184.39 -172.84,119.88 -444.95,153.8l-4.91 -62.46 -0.75 -719.85c-11.94,-29.76 7.37,-17.75 -22.39,-17.89 3.34,17.75 7.37,14.47 -10.11,11.68 2.66,17 5.81,12.83 -11.6,9.97 1.37,15.43 4.64,11.8 -11.2,9.62 2.19,16.65 6.29,13.65 -9.55,11.4 3.61,17.88 7.1,14.14 -10.99,10.79 2.79,17 5.39,12.28 -12.7,8.94l-14.81 4.78c-1.37,0.27 -5.13,0.96 -6.49,1.03l-17.2 -7.93c18.78,30.59 5.67,29.56 4.84,31.06 2.66,15.7 6.22,12.01 -9.35,11.95 1.98,16.73 6.49,14 -9.14,12.22 2.45,16.93 6.35,13.59 -10.32,11.4 1.92,15.7 4.93,11.6 -11.46,9.62 1.98,16.04 5.94,13.04 -9.56,11.4 2.6,16.18 5.73,12.3 -10.92,10.65 1.64,15.91 5.59,12.91 -9.69,11.27 2.59,16.51 5.86,12.7 -10.99,10.65 1.71,15.9 5.52,12.84 -10.04,10.84 2.39,16.46 5.6,12.43 -11.4,10.25 1.37,15.7 5.13,12.43 -10.3,10.65 2.1,16.24 5.25,12.08 -11.55,10.03 1.03,15.29 4.64,11.95 -10.5,10.38 1.64,15.77 4.84,11.81 -11.55,9.96 0.89,15.16 4.57,11.82 -10.23,10.65 1.57,15.57 4.98,11.89 -10.79,10.66 1.37,15.7 5.4,12.56 -9.56,11.46 2.26,16.11 5.73,12.43 -10.51,10.86 1.84,16.46 5.94,13.38 -9.83,11.33 2.6,16.73 5.73,12.63 -11.41,10.16 1.37,15.72 5.06,12.5 -10.37,10.67 2.32,16.24 5.61,12.42 -11.12,10.3 1.5,15.77 5.25,12.48 -10.18,10.85 2.32,16.11 5.6,12.3 -10.91,10.37 1.76,16.33 5.59,13.04 -10.25,11.01 2.05,16.1 5.05,11.94 -11.8,9.69 0.74,15.02 4.3,11.53 -10.66,10.23 1.51,15.63 4.85,11.87 -11.05,10.31 1.15,15.36 4.91,12.23 -10.03,11.06 1.76,15.77 5.25,12.08 -10.72,10.65 1.49,15.77 5.32,12.49 -9.91,11.2 2.19,16.17 5.67,12.42 -10.72,10.64 1.78,16.25 5.81,13.24 -9.69,11.34 2.66,16.65 6.08,12.89 -10.79,10.71 2.05,16.12 5.88,12.9 -9.82,11.13 2.93,17.07 6.62,13.65 -10.38,11.12 2.67,16.11 6.21,12.77 -9.9,10.93 3.28,17.75 6.83,13.99 -10.92,10.99 1.85,15.7 4.57,11.19 -12.16,9.08 0.9,14.95 4.72,12.02 -9.62,10.72 -2.25,2.25 -5.39,5.94 -7.16,6.35 -1.31,0.34 -5.66,1.76 -6.9,1.91 -45.19,5.32 10.3,21.5 -12.9,-13.58 17.48,-140.83 4.3,-368.36 4.16,-518.81l4.37 -379.42c-1.84,-37.82 -5.52,-75.1 -5.4,-120.96l1780.01 1.49zm-1832.7 61.92c-30.72,-28.95 -22.73,-25.54 -21.24,-52.02l48.41 -11.12 -5.88 79.38c-12.96,-9.28 -9.28,-4.91 -21.29,-16.24zm-1718.36 1580.8c-37.62,-61.99 11.75,-76.45 59.05,-124.65l1349.52 -1347.96c102.6,-104.57 152.92,-182.32 239.96,-165.54 -4.71,35.5 -351.29,367.14 -401.54,418.07l-1136.06 1136.73c-27.44,27.31 -67.71,83.49 -110.93,83.35z"/>
  <path class="fil0" d="M8511.08 16731.56c208.35,-13.11 724.15,-1.78 991.28,-1.98 141.84,-0.27 85.32,7.1 235.64,-137.36l474.37 -470.69c45.54,-47.85 28.74,-130.72 28.6,-232.09l0.41 -712.21c-1.15,-86.97 -21.78,-67.85 -57.55,-116.66 -44.56,19.46 -751.66,737.67 -846.81,833.45 -87.04,87.78 -815.9,805.18 -825.94,837.54z"/>
  <path class="fil0" d="M9960.33 18427.18c28.81,100.21 262.56,351.35 376.42,441.05 21.58,17.07 33.79,32.77 55.43,50.17 147.32,118.32 460.72,214.08 713.84,217.23 228.82,2.8 578.07,-117.56 717.06,-214.08 144.03,-100.01 398.12,-309.51 445.15,-483.24l-224.8 -225.69c-21.77,-21.64 -48.8,-60 -77.13,-69.42l-0.07 316.26 -1806.22 0c6.69,-42.19 29.43,-50.1 58.85,-80.06l478.19 -482.23 -193.52 -3.35c-1.92,2.19 -4.44,5.06 -5.81,6.56l-537.39 526.8z"/>
  <path class="fil1" d="M6040.72 10760.37l296.61 3.69c10.86,-115.15 39.87,-723.66 73.86,-767.15 43.21,126.16 85.74,252.71 130.59,377.77 26.62,74 106.02,334.84 138.24,381.05l164.72 -1.63c35.43,-43.96 53.39,-130.8 73.53,-188.89 35.83,-103.15 177,-529.6 202.95,-566.52 34.47,108.12 41.5,700.66 76.52,765.17l286.03 -0.48 -115.17 -1301.46 -320.29 -1.84c-27.44,106.97 -97.69,264.18 -140.29,372.52 -24.17,61.23 -46.96,122.81 -70.71,184.38 -21.17,54.82 -40.21,141.51 -75.03,177.7 -24.44,-30.45 -264.25,-661.91 -284.25,-734.67l-322.89 -0.07 -114.42 1300.43z"/>
  <polygon class="fil1" points="4276.56,14832.77 17739.36,14833.72 17746.95,14742.53 4276.76,14742.33 "/>
  <polygon class="fil1" points="4274.51,12215.3 17744.56,12215.57 17748.03,12125.33 4273.22,12124.58 "/>
  <path class="fil0" d="M10265.62 16036.49l26.96 5.32c-3.76,-16.45 -7.1,-13.04 9.62,-10.72 -1.02,-15.97 -4.3,-11.94 12.16,-9.08 -1.71,-16.24 -5.32,-12.62 10.92,-10.99 -3.13,-16.94 -6.89,-13.65 9.9,-10.93 -2.73,-16.58 -6.22,-13.04 10.38,-11.12 -2.93,-16.79 -6.62,-13.52 9.82,-11.13 -2.18,-16.18 -5.59,-12.42 10.79,-10.71 -2.52,-16.46 -6.42,-13.24 9.69,-11.34 -1.83,-15.84 -5.25,-12.08 10.72,-10.64 -2.12,-16.04 -5.81,-12.77 9.91,-11.2 -1.58,-15.56 -5,-11.8 10.72,-10.65 -1.78,-15.9 -5.47,-12.63 10.03,-11.06 -1.24,-15.29 -4.58,-11.53 11.05,-10.31 -1.43,-15.77 -5.04,-12.42 10.66,-10.23 -0.83,-15.43 -4.24,-11.69 11.8,-9.69 -1.91,-16.19 -5.67,-12.84 10.25,-11.01 -1.78,-15.75 -5.2,-12.08 10.91,-10.37 -2.17,-16.44 -5.86,-13.17 10.18,-10.85 -1.64,-15.97 -4.98,-12.15 11.12,-10.3 -2.18,-16.46 -5.8,-13.11 10.37,-10.67 -1.42,-15.82 -4.84,-12.01 11.41,-10.16 -2.32,-16.25 -6.14,-12.97 9.83,-11.33 -1.98,-15.7 -5.39,-12.01 10.51,-10.86 -2.18,-16.04 -5.94,-12.7 9.56,-11.46 -1.37,-15.37 -4.78,-11.68 10.79,-10.66 -1.58,-15.7 -5.27,-12.42 10.23,-10.65 -0.82,-15.28 -4.22,-11.4 11.55,-9.96 -1.58,-15.9 -5.27,-12.55 10.5,-10.38 -1.09,-15.62 -4.44,-11.81 11.55,-10.03 -2.05,-16.31 -5.74,-13.04 10.3,-10.65 -1.44,-15.77 -4.78,-11.94 11.4,-10.25 -2.32,-16.38 -6.07,-13.09 10.04,-10.84 -1.71,-15.97 -5.13,-12.16 10.99,-10.65 -2.39,-16.25 -6.22,-13.11 9.69,-11.27 -1.71,-15.83 -5.05,-11.94 10.92,-10.65 -2.32,-16.51 -6.42,-13.58 9.56,-11.4 -2.12,-15.83 -5.12,-11.8 11.46,-9.62 -1.76,-16.24 -5.66,-12.97 10.32,-11.4 -2.53,-15.83 -6.29,-12.29 9.14,-12.22 -2.05,-15.7 -5.79,-12.35 9.35,-11.95 -11.74,-40.34 -41.02,-46.21 -101.09,-110.05l-222.28 -223.89c-38.91,-37.14 -86.48,-66.7 -104.03,-126.57 41.36,24.78 181.38,176.19 224.04,219.06l164.66 164.38c52.22,58.98 28.59,44.86 72.36,48.13 -1.29,-16.45 -4.44,-12.23 12.7,-8.94 -2.53,-16.87 -6.01,-12.98 10.99,-10.79 -3.56,-16.92 -7.25,-13.58 9.55,-11.4 -2.32,-16.31 -5.52,-12.55 11.2,-9.62 -1.44,-16.46 -4.91,-12.7 11.6,-9.97 -2.52,-16.59 -6.28,-13.11 10.11,-11.68 9.89,-13.51 -24.85,-17.88 24.71,-10.85l6.69 188.07c95.36,75.64 178.11,174.41 262.07,261.04l918.36 -904.51c33.18,-33.99 16.79,0.34 24.44,-36.04l-1780.01 -1.49c-0.12,45.86 3.56,83.14 5.4,120.96l-4.37 379.42c0.14,150.45 13.32,377.98 -4.16,518.81z"/>
  <path class="fil1" d="M13429.34 10259.04c-36.38,-20.14 -233.53,-349.65 -262,-392.45 -31.06,-46.96 -248.62,-398.87 -266.5,-405.83l-291.77 -1.5 0 1303.92 296.48 0.54 0.54 -797.33c29.91,13.73 412.11,622.92 479.97,733.16 43.55,70.73 33.93,65.95 130.25,64.51 58.16,-0.88 152.3,13.18 198.51,-5.32l10.59 -1199.26c2.32,-136.68 47.78,-94.22 -289.72,-101.59 -25.66,87.45 -6.62,664.76 -6.35,801.15z"/>
  <path class="fil1" d="M15273.64 10032.2l-600.93 1.51 -1.16 228.14 293.61 0.27c36.39,132.77 -149.71,287.81 -343.64,242.2 -310.2,-72.98 -359.35,-607.9 -65.81,-765.72 73.38,-39.53 172.16,-43.69 256.88,-9.5 117.49,47.24 97.35,78.79 169.77,135.85 34.06,-26.35 174.76,-177.97 189.98,-211.81 -93.93,-81.99 -177.56,-175.04 -363.44,-204.46 -191.07,-30.45 -353,4.16 -482.5,92.15 -269.03,182.61 -351,547.96 -240.96,830.38 96.86,248.75 367.94,482.42 744.83,396.2 168.74,-38.64 278.78,-127.92 351.9,-232.57 106.09,-152.03 95.64,-285.96 91.47,-502.64z"/>
  <path class="fil1" d="M9502.97 9697.84c148.33,-9.9 277.97,13.8 278.17,169.91 0.2,151.75 -129.91,181.86 -278.38,168.28l0.21 -338.19zm-297.98 1064.65l296.69 1.1 0.74 -502.84c42.11,23.15 285.61,356.47 347.06,438.87 30.99,41.51 31.74,62.46 97.96,65.07 97.69,3.95 223.23,1.49 321.87,-1.31 -23.42,-64.23 -353.83,-417.84 -418.53,-512.52 -13.8,-20.21 1.56,10.72 -12.77,-22.12 52.36,-54.96 176.33,-50.45 237.76,-244.6 40.9,-129.35 16.46,-292.23 -55.08,-379.96 -156.88,-192.22 -506.73,-146.63 -814.74,-145.61l-0.96 1303.92z"/>
  <path class="fil1" d="M10517.38 10763.04l297.16 0.55c0.41,-72.83 -8.74,-512.67 6.76,-531.16 11.73,-9.23 7.23,-2.94 22.86,12.08l357.03 408.97c24.37,27.98 35.77,48.34 62.45,75.98 56.33,58.02 221.53,33.45 309.66,34.13l119.67 1.44 -594.67 -685.86c96.88,-111.75 497.73,-578.89 514.93,-621.62l-262.96 2.05c-137.68,-0.2 -83.21,7.37 -230.05,167.59 -35.84,39.18 -285.75,355.52 -297.43,344.11 -14.06,-23.27 -8.86,-34.26 -8.52,-70.92l0.2 -440.85 -296.82 -0.47 -0.27 1303.98z"/>
  <path class="fil1" d="M8306.16 9871.17c28.87,37.68 133.51,311.69 148.74,369.51l-288.15 0.07 139.41 -369.58zm-652.95 892.62l315.24 0.07c14.26,-47.78 72.9,-221.79 100.15,-259l491.63 -2.52 93.25 258.11 316.28 3.14 -519.98 -1300.24 -281.39 -3.95c-49.42,182.6 -496.08,1194.08 -515.18,1304.39z"/>
  <path class="fil0" d="M11402.5 17894.16c-135.37,8.81 -296.48,1.3 -434.58,1.17 -238.71,-0.41 -199.19,-26.69 -325.48,100.55 -74.89,75.5 -142.2,143.02 -217.16,218.32 -33.99,34.26 -196.79,174.14 -204.24,222.19l1723.21 0.82c17.34,-370.4 14.19,-308.22 -102.68,-426.58 -77.68,-78.72 -393.61,-407.75 -433.88,-422.35l-5.19 305.88z"/>
  <path class="fil0" d="M11555.75 16378.7c-36.11,-2.88 -12.84,-6.56 -29.08,12.08l127.65 107.72c20.56,25.87 5.54,21.5 33.79,50.79 60.77,62.66 131.55,96.18 176.47,137.76l14.27 14.33c-3.49,-1.51 -8.26,-7.3 -10.24,-4.51l-53.73 -29.48c-26.89,-16.67 -28.74,-18.7 -61.09,-30.25 -23.42,44.1 -243.09,239.89 -314.09,318.6 -58.98,65.32 -8.81,127.24 -40.75,172.7l11.33 60.42 500.72 -505.09c15.09,-13.04 20.48,-21.43 33.94,-37.28 20.46,14.27 10.64,11.55 19.04,21.64l14.26 17.69c17.95,18.29 116.73,93.38 133.26,122.26l-114.55 -100.69c-18.29,-11.6 -5.4,-7.79 -28.74,-13.58 -10.31,117.54 39.72,82.38 167.93,246.77 40.34,51.88 140,167.86 159.19,256.74l-18.36 -25.11c-77.82,-132.04 -81.99,-153.6 -207.32,-292.32 -31.27,-34.68 -60.35,-75.57 -100,-87.24l-4.3 1328.16c59.65,34.87 99.11,102.87 149.55,129.97l288.35 -278.39c68.88,-76.11 8.47,-395.73 -11.19,-490.88 -19.72,-95.78 -86.89,-201.18 -96.73,-284.19 1.71,1.65 4.1,2.12 4.71,5.32 0.54,3.29 3.69,4.37 4.5,5.54l58.44 132.43c21.64,54.88 41.85,105.13 54.33,169.78 34.01,176.26 23.7,207.93 33.33,344.05 3.34,47.1 7.43,44.65 21.02,59.25 20.2,-77.42 24.64,-97.83 24.17,-190.32 0,0 14.06,1.77 12.7,56.11 -1.17,47.03 -12.23,27.1 -3.76,76.94 6.89,40.68 -1.1,10.51 -8.6,61.37 -12.43,84.17 -10.38,146.55 -32.37,232.84 -46.83,183.23 -16.58,119.95 -97.27,284.68 -15.16,30.98 -22.19,47.23 -9.97,68.53 22.94,39.8 4.5,7.43 23.83,21.37 49.83,-31.47 114.95,-231.76 139.05,-298.53 29.96,-83.41 50.03,-296.53 49.49,-392.73 -28.81,8.67 -29.76,18.17 -52.35,30.45 14.88,-31.81 21.44,-31.2 46.96,-48.32 7.64,-144.79 -48.88,-394.51 -89.56,-522.64 -30.25,-95.23 -38.16,-142.4 -84.99,-223.23 -23.22,-40.14 -38.36,-55.84 -62.39,-86.29 -23.9,-30.1 -40.55,-61.5 -66.16,-92.9 -185.88,-229.17 -365.48,-387.61 -704.69,-512.32zm-32.84 -10.32l13.87 -6.89 -13.87 6.89z"/>
  <path class="fil1" d="M8232.23 7032.04c-0.29,145.81 -2.05,310.61 -10.11,455.53 -11.13,200.42 -192.64,174 -180.16,272.37 55.57,39.87 209.44,2.25 292.11,1.57 83.55,-0.81 231.63,44.58 297.85,3.35 37.33,-97.35 -154.29,-101.58 -199.68,-204.39 -42.19,-95.64 -13.79,-946.55 -11.81,-1027.51 2.8,-113.59 -19.53,-174.14 104.16,-183.49 225.55,-17.28 452.74,179.46 343.65,483.99 -30.1,83.82 -64.92,127.11 -123.55,162.81 -59.81,36.59 -158.86,60.55 -196.27,99.54l306.78 434.63c43.29,59.74 116.39,171.76 164.05,208 54.88,41.65 268.48,46.21 335.52,16.86 45.59,-125.4 -88.68,-91.06 -168.42,-120.61 -76.93,-28.68 -127.72,-95.24 -169.29,-149.37 -38.02,-49.5 -251,-347.27 -259.13,-379.89 499.01,-242.08 429.79,-835.83 -83.83,-853.18 -131.13,-4.43 -259.55,19.19 -390.54,1.51 -58.92,-7.92 -229.03,-53.18 -224.73,34.4 4.64,94.2 154.41,-24.71 163.56,351.37 3.15,129.89 10.11,262.33 9.84,392.51z"/>
  <path class="fil1" d="M12560.95 7074.5c-198.18,-0.07 -157.83,-72.08 -109.7,-226.56 18.84,-60.7 87.11,-261.66 127.18,-278.12 71.81,-29.42 122.74,186.49 143.9,259 63.41,217.69 55.7,245.75 -161.38,245.68zm-811.19 684.97c91.2,34 181.04,-0.68 290.81,0.55 94.61,1.09 218.51,27.03 299.88,6.14 88.27,-192.51 -248.41,-10.78 -130.86,-310.07 69.16,-176.04 100.76,-263.01 271.69,-271.28 205.34,-9.96 331.37,-33.38 388.36,144.05 22.73,70.71 35.3,166.02 0.48,235.24 -36.11,71.81 -100.49,76.79 -150.05,122.26 0.21,138.78 121.86,87.45 238.73,73.85 118.03,-13.92 228.48,26.42 314.63,18.31 67.24,-6.22 55.15,-80.42 22.87,-111.96 -73.12,-71.74 -172.64,-10.17 -244.18,-265.48 -50.25,-179.26 -90.8,-358.74 -142.95,-536.63 -51.27,-175.04 -112.29,-342.62 -157.07,-522.16 -83.84,-336.47 -216.89,-32.01 -270.62,111.34 -81.16,216.4 -299.74,782.66 -389.1,969.7 -32.22,67.31 -92.92,160.21 -148.95,191.07 -82.67,45.47 -232.31,9.63 -193.67,145.07z"/>
  <path class="fil1" d="M4618.63 11954.2c8.88,55.55 -7.03,36.31 157.7,36.17l12563.76 -0.13c64.23,0.07 54.33,16.79 62.04,-35.09 -25.05,-17.21 -43,-12.01 -82.87,-11.81 -35.5,0.27 -71.05,1.09 -106.62,1.09 -4064.96,-8.32 -8136.33,-0.07 -12202.72,-0.07 -74.33,0 -352.57,-19.8 -391.29,9.84z"/>
  <path class="fil1" d="M10451.84 6317.04c175.79,161.78 222.62,-97.9 222.48,789.34 0,721.63 -103.49,419 -174.21,595.55 -50.51,126.08 218.79,61.97 255.03,60.26 138.72,-6.4 201.25,58.92 340.3,7.32 9.21,-159.95 -186.43,-68.21 -211.07,-229.31 -11.33,-73.59 -31.06,-352.24 -12.56,-414.16 30.92,-103.21 213.74,-129.16 327.87,-81.09 118.44,49.89 113.26,237.76 214.22,231.2 21.97,-62.05 13.18,-142.13 3.14,-212.84 -39.67,-278.04 -237.43,-110.53 -555.54,-134.48 0.82,-481.48 -57.34,-572.6 297.57,-571.65 108.94,0.27 214.96,2.79 271.75,63.34 56.94,60.55 71.21,180.5 156.67,188.62 30.04,-75.63 14.68,-285.55 -44.51,-343.3 -77.4,-75.56 -575.47,13.85 -786.6,-1.36 -175.72,-12.7 -305.83,-84.65 -304.54,52.56z"/>
  <path class="fil1" d="M8896.64 13948.89c44.44,25.52 104.99,39.8 157.82,28.33 28.07,-6.01 13.52,-2.47 24.38,-8.94 35.83,-52.03 12.97,-514.46 11.95,-616.84 37.75,32.14 147.18,293.46 179.74,359.47 32.83,66.56 56.11,115.3 85.53,179.61 22.86,49.97 29.28,88.33 114.83,89.97 117.61,2.18 73.93,-110.66 73.93,-278.93 0,-211.41 4.5,-653.22 -30.32,-830.16 -62.6,-25.34 -117.2,-22.73 -167.45,15.7l2.4 588.5c-30.18,-24.3 -35.5,-50.37 -51.76,-89.97 -15.02,-36.38 -27.16,-62.05 -41.51,-96.25l-158.63 -371.83c-55.1,-103.01 -178.72,-51.35 -188,-42.61 -40.83,38.85 -17.34,444.47 -17.41,529.26 0,162 -13.04,390.68 4.5,544.69z"/>
  <path class="fil1" d="M13626.77 7435.7l-70.93 5.86c-23.76,82.53 -29.35,181.31 36.92,237.01 154.01,129.23 498.89,149.5 695.28,72.09 331.62,-130.86 366.38,-493.21 73.45,-681.9 -198.16,-127.79 -669.8,-216.4 -639.77,-501.12 15.02,-142.06 184.39,-229.57 347.34,-231.55 289.36,-3.49 301.1,198.16 340.63,248.62l56.52 -5.81c24.71,-61.57 34,-192.03 -14.33,-237.49 -100.62,-94.68 -487.07,-146.08 -686.06,-37.55 -319.07,174.01 -291.97,536.22 3.07,698.97 217.28,119.94 701.56,249.43 591.99,522.84 -77.13,192.5 -443.37,217.35 -628.58,98.01 -88.13,-56.72 -60.68,-100.81 -105.53,-187.98z"/>
  <path class="fil1" d="M10218.58 13793.17c-15.97,-36.79 -9.28,-140 -9.28,-187.12 0.07,-63.68 0,-127.5 0,-191.13 0,-395.94 -43.96,-402.42 165.13,-389.18 66.35,4.17 65.88,23.07 80.28,84.52 27.92,119.25 37.89,490.07 8.12,606.59 -23.34,91.55 -153.04,104.03 -244.25,76.32zm-211.07 157.97c61.98,26.15 351.02,33.58 422.43,19.66 134.07,-26.01 205.07,-93.93 240.01,-216.47 57.96,-203.43 68.34,-614.59 -39.94,-787.36 -95.03,-151.89 -389.85,-110.46 -565.91,-94.62 -74.69,6.69 -57.55,-3.34 -57.55,170.8 -0.07,286.37 -16.99,628.51 0.96,907.99z"/>
  <path class="fil1" d="M14839.01 13015.23c182.8,-49.09 163.29,101.65 165.61,378.33 1.64,193.11 29.96,399.54 -130.67,421.73 -168.2,23.22 -165.39,-28.4 -167.03,-379.2 -0.9,-190.34 -21.65,-379.56 132.09,-420.86zm-119.34 -144.73c-133.58,34.69 -185.61,112.31 -214.62,246.85 -42.19,195.98 -59.32,656.02 101.72,789.75 84.99,70.66 251.14,93.39 383.52,57.62 134.95,-36.65 179.94,-106.36 212.29,-244.53 41.58,-177.75 56.26,-665.5 -92.09,-794.46 -80.69,-70.1 -261.93,-88.61 -390.82,-55.23z"/>
  <path class="fil0" d="M10501.75 17868.64c21.98,-50.24 31.94,-45.13 70.24,-81.3 28.47,-26.76 45.81,-47.86 72.5,-76.12 89.43,-94.76 379.34,-358.53 440.99,-441.2 -37.21,-53.93 -193.33,-207.19 -242.2,-247.11 -17.14,89.42 23.54,227.38 -14,300.36 -27.37,25.05 -560.04,-9.56 -633.43,5.33 -34.41,6.96 -89.29,73.44 -112.9,97.34l-429.18 436.9c39.59,-4.86 25.8,-0.42 34.54,-37.07l32.97 33.51c27.71,14 6.69,6.36 40.21,5.12l20.14 -4.44c122.25,33.79 555.39,-4.5 720.12,8.68z"/>
  <path class="fil1" d="M13577.06 13341.8c-8.94,-35.84 -10.5,-220.62 -5.59,-267.04 5.81,-54.2 28.95,-47.93 83.28,-48.95 52.03,-0.95 81.99,-4.71 105.82,28.27 16.51,22.79 87.65,252.02 -60.63,288.96l-96.73 7.84c-33.31,-5.39 -15.7,-3.2 -26.15,-9.08zm-185.19 -466.03c-14.48,254.76 1.02,666.19 -1.23,953.31 -0.48,54.89 -10.32,106.29 25.94,132.02 50.31,35.7 124.71,13.65 127.99,12.43 58.78,-21.1 22.12,-310.74 29.22,-417.44l102.2 -7.24 65.25 140.63c25.33,57.13 91.41,242.74 135.23,268.48 40.21,23.55 134.07,32.22 174.15,11.4 21.98,-61.85 -168.82,-375.66 -183.02,-469.52 38.17,-41.71 44.03,-32.77 78.5,-91.07 22.32,-37.6 34.96,-77.96 42.39,-126.22 76.67,-498.33 -284.25,-430.48 -596.62,-406.78z"/>
  <path class="fil0" d="M11946.16 16855.59c-0.34,-136.26 -24.92,-40.82 -1.37,-149.84l-28.32 26.27c-1.78,1.37 -4.17,3.35 -5.95,4.79l-434.85 425.08c-89.41,85.47 -68.73,74.83 -68.39,235.58 0.34,161.1 -17.07,143.76 71.2,232.93 59.32,59.93 427.67,436.68 467.12,450.88l0.56 -1225.69z"/>
  <path class="fil1" d="M11479.02 13072.37c20.14,27.98 36.52,152.3 43.7,191.54 10.5,57.62 30.03,134.63 31.25,192.86l-137.89 -0.27 62.94 -384.13zm-330.54 886.34c34.69,33.11 121.04,23.96 180.3,19.32 23.07,-62.73 34.46,-299.27 67.51,-335.58 19.93,-19.33 25.46,-11.89 91.95,-11.74 37.68,0.07 70.59,-4.79 95.43,7.43 74.68,122.75 -35.22,405.02 240.29,335.66 23.22,-94.34 -121.57,-759.51 -158.36,-928.33 -33.18,-152.71 -6.22,-194.55 -177.23,-191.08 -187.32,3.97 -167.11,-2.59 -196.33,161.31 -19.31,108.21 -35.5,210.88 -55.15,318.8 -18.57,102.26 -34.95,203.91 -52.23,308.76 -11.6,70.66 -62.66,265.01 -36.18,315.45z"/>
  <path class="fil1" d="M7760.92 12990.11c-0.62,244.87 -32.63,757.11 102.68,905.8 89.15,98.16 342.27,119.81 449.25,17.88 106.07,-101.03 116.52,-295.85 120.08,-477.7l-18.38 -505.11c-13.92,-96.93 -119.45,-81.09 -152.43,-67.71 -41.92,16.93 -32.9,55.7 -32.97,105.53l-0.14 446.12c-0.47,187.86 36.8,438.53 -212.1,379.89 -73.52,-51.54 -32.28,-824.84 -80.75,-905.39 -20.41,-33.93 -82.94,-43.36 -132.09,-27.71 -49.84,15.75 -42.87,67.17 -43.15,128.4z"/>
  <path class="fil0" d="M11899.33 18956.49l27.64 -15.35c1.1,-3.35 4.86,-2.45 7.38,-3.55 -6.21,6.83 -1.91,3.28 -15.98,15.56 -48.68,42.53 -40.41,38.37 -59.52,26.49 18.43,-8.87 22.66,-12.36 40.48,-23.15zm-2136.13 -721c12.76,11.75 5.79,3.55 16.85,19.73 1.44,2.18 3.14,4.78 4.51,6.96 1.37,2.25 2.73,4.91 3.96,7.23 46.9,86.29 8.25,56.67 104.99,202.01l7.85 13.09c101.16,186.17 222.95,316.08 382.75,446.05 70.53,57.41 143.98,104.45 250.26,142.81 236.61,85.47 398.95,135.09 687.91,107.65 417.92,-39.73 469.93,-136.53 614.52,-178.78 -104.45,121.92 -442.77,189.09 -611.44,203.29 -359.62,30.45 -547.84,-39.04 -833.11,-180.97 -214.49,-106.84 -294.29,-255.78 -418.19,-388.7 -82.19,-88.13 -194.21,-299.48 -210.86,-400.37zm2642.71 -90.38c-0.34,-1.37 -3,3.83 -4.37,5.8 0.42,-18.7 -3,-21.77 11.4,-42.06l-7.03 36.26zm7.03 -36.26c0.15,-36.79 -2.93,-29.28 12.64,-52.83l-12.64 52.83zm52.44 -182.05c-32.56,40.07 -21.78,87.58 -42.26,128.88 -0.07,-7.04 0.61,-38.71 0,-42.25 -5.81,-32.98 1.1,-16.87 -15.63,-36.87 -56.59,82.46 -239.95,213.4 -276.13,291.7 20.82,44.02 108.94,137.9 157.14,152.43 16.52,-39.73 37.48,-84.44 56.66,-134.68l56.38 -135.1c-3,48.4 -46.14,154.34 -65.66,199.81 -66.97,155.84 -5.12,35.91 -90.45,175.23 -145.74,238.12 -299.61,391.03 -554.85,507.55 -94.42,43.07 -285.62,102.94 -405.23,115.64 -280.9,29.7 -259.54,6.83 -485.63,-24.64 -180.36,-25.13 -253.46,-72.7 -376.07,-152.5 -112.22,-73.05 -327.87,-280.57 -402.42,-394.17 -108.75,-165.88 -75.98,-99.18 -110.86,-118.37 18.22,-25.93 14.27,4.37 7.65,-40.75 -5.06,-34.4 -98.99,-154.55 -147.32,-437.78 -12.14,-71 -16.17,-81.37 -121.45,-86.28 1.78,94.95 17.35,191.27 40.97,270.8 23.34,78.51 81.5,279.14 134.61,333.74l29.49 30.1c29.98,93.61 58.23,144.86 139.61,234.71 226.57,249.84 410.2,380.3 746.34,475.25 315.45,89.09 795.61,11.6 1029.9,-126.7 235.37,-138.85 411.63,-268.35 566.81,-505.43 35.01,-53.52 31.67,-35.84 30.84,-63.35 -0.07,-2.18 -0.54,-5.52 -0.95,-7.57l-15.9 -29.42c-43.63,9.69 -36.52,10.78 -60.35,54.06 -62.73,114.07 -247.87,337.3 -356.27,376.75l54.68 -51.61c100.41,-88.12 257.29,-259.27 311.97,-367.8 51.88,-102.94 86.01,-148.69 121.85,-271.84 9.48,-32.55 58.3,-245.89 54.28,-285.21l-7.79 -26.34c-0.41,-4.51 -2.19,-5.6 -3.96,-7.99z"/>
  <path class="fil1" d="M12943.23 13956.73c-0.69,-64.04 -6.21,-455.94 -42.53,-498.88 -17,-20.13 -43.83,-22.59 -74.2,-22.73 -11.06,-0.06 -30.04,0.82 -40.61,3.34 -3.08,0.76 -5.81,1.37 -8.61,2.32 -89.29,29.37 -12.15,232.12 -43.08,348.56 -37.47,16.39 -112.22,18.99 -160.07,5.95 -112.58,-30.59 -87.72,-313.34 -85.96,-444.19 6.83,-491.59 150.2,-263.37 354.58,-304.27 18.22,-32.89 38.09,-78.91 36.38,-132.23 -112.02,-80.96 -393.75,-80.55 -501.81,9.02 -100.22,83 -121.93,338.53 -119.33,512.47 7.92,531.29 163.01,596.48 685.24,520.64z"/>
  <path class="fil1" d="M11942.89 10764.06l296.67 -1.35c7.16,-400.86 -4.64,-803.62 0,-1203.23 1.64,-140.29 44.85,-91.63 -290.94,-102 -17.96,78.92 -8.88,1145.68 -5.73,1306.58z"/>
  <path class="fil0" d="M10840.74 16990.61c56.87,30.05 185.83,215.72 265.22,254.29 44.37,-19.39 166.5,-150.65 218.16,-202.75 11.14,-11.11 26.84,-27.23 34.69,-40.55 5.6,-9.55 14.46,-38.77 16.39,-41.78l3.2 -619.9c-54.4,-13.93 -112.78,-14.47 -147.18,-38.84 55.5,0.47 203.29,39.31 129.23,-59.47 -16.73,-22.25 -31.88,-33.92 -56.45,-45.05 -20.21,19.12 -44.65,36.94 -63.09,61.31 -36.86,48.95 -4.02,24.64 -61.43,66.35 -47.17,34.27 -41.31,46.76 -96.59,93.79 -40.28,34.28 -19.87,3.35 -35.1,51.4 75.37,-6.96 217.09,-24.64 285.22,4.1 -21.92,6.62 -177.97,-6.42 -227.8,-4.03 -107.6,4.98 -130.11,73.52 -232.51,163.29 -38.99,34.21 -34.41,24.93 -34.62,94.96 -0.2,83.15 -3.2,181.45 2.66,262.88z"/>
  <path class="fil0" d="M9910.3 17244.36c-2.59,-69.78 162.4,-303.92 255.39,-383.92l33.65 -29.63c1.29,-1.3 3.75,-3.82 4.91,-4.98l8.93 -10.45c2,1.85 6.64,1.44 6.91,4.64 0.34,3.22 2.93,4.71 4.91,6.63l-21.37 18.42c-50.37,52.17 -84.92,114.21 -154.62,174.91 -38.97,33.99 -109.7,167.1 -138.71,224.38zm337.36 -444.54c8.81,-14.62 163.56,-129.16 200.23,-135.04l-200.23 135.04zm465.85 -251.43l-214.64 83.84c36.94,-37.69 163.17,-78.03 214.64,-83.84zm-355.94 83.97c36.46,-22.46 62.8,-43.07 100.08,-53.18l-100.08 53.18zm118.79 -32.62c6.47,-21.1 50.51,5.52 11.52,1.77 -1.08,-0.21 -19.31,23.96 -11.52,-1.77zm126.76 -103.02l119.25 -27.1c-35.89,29.23 -98.08,38.36 -142.73,61.58 -74.01,38.63 -49.08,70.37 -123.84,39.53 92.64,-29.37 121.32,-68.75 172.17,-117.97l49.97 -59.87c-52.02,9.35 -355.25,155.57 -394.03,203.7 -35.08,43.56 -1.02,51.54 -11.6,115.24l-13.45 42.19c-51.54,13.03 -56.79,-15.65 -152.91,89.14 -38.98,42.53 -71,85.82 -105.48,139.27 -37.47,58.09 -175.16,263.69 -180.28,316.4 87.25,0.49 239.47,9.21 319.14,0.96 54.61,-5.74 297.7,-275.93 339.27,-317.23 48.34,-48.06 123.7,-113.86 163.1,-169.16l-15.5 -18.85c-1.37,-1.42 -3.76,-4.15 -5.33,-5.79 -76.05,-81.3 -112.92,-134.21 -172.98,-123.98l20.88 -53.17c37.69,32.98 51.41,61.57 86.16,94.48 33.86,31.88 67.02,56.59 89.97,96.32 44.71,-19.39 81.3,-68.68 115.02,-101.44 65.95,-64.24 49.22,-52.77 51,-169.5l-97.14 18.22c8.93,-13.31 56.18,-21.08 62.26,-23.07 47.37,-15.76 36.86,-10.99 32.69,-66.15l-85.33 13.86c83.89,-44.58 90.38,7.04 86.7,-112.7 -96.4,5.6 -142.88,55.5 -196.13,121.1l-10.85 13.99z"/>
  <path class="fil1" d="M9565.97 6314.1c75.23,58.91 168.69,47.11 170.25,261.05 1.58,219.2 7.45,672.89 -2.1,871.54 -8.67,178.99 -75.37,189.36 -178.38,262.81 6.2,77.2 35.77,70.32 112.9,61.38 55.57,-6.49 103.69,-15.5 162.55,-13.33 93.18,3.49 264.72,67.04 238.72,-69.22 -41.31,-63.48 -111.07,-40.21 -143.91,-155.84 -28.66,-100.96 -15.28,-749.76 -15.77,-882.73 -0.47,-105.82 -9.55,-173.8 54.55,-238.59 38.91,-39.24 193.12,-87.1 111.2,-153.72 -37.13,-30.18 -214.76,4.09 -276.6,0.95 -140.15,-6.89 -229.85,-50.1 -233.41,55.7z"/>
  <path class="fil1" d="M6809.87 13962.47c36.31,13.58 160.27,36.31 186.76,-0.07 22.46,-47.93 -0.68,-391.29 9.35,-483.17 138.17,-4.78 316.35,26.89 343.31,-39.8 21.43,-52.71 27.85,-128.27 -65.81,-134.77 -58.1,-4.08 -255.99,12.43 -276.55,-5.59l-19.99 -244.59c118.02,-17.68 259.34,14.67 363.86,-17.61 16.09,-43 27.44,-93.86 14.06,-148.28 -130.33,-25.86 -409.87,-9.89 -561.9,-11.74 -4.3,143.36 -17.61,1022.75 6.91,1085.62z"/>
  <path class="fil0" d="M10269.85 16207.96l-0.81 329.66c36.72,-3.29 224.38,-125.47 304.39,-149.44 64.64,-19.39 123.89,-24.84 176.19,-58.97 67.65,-44.24 60.82,-69.22 60.28,-174.28l-1.24 -584.29c-39.19,18.85 -29.82,22.33 -55.84,51.27l-389.44 385.16c-75.1,74.67 -94.21,55.15 -93.53,200.89z"/>
  <path class="fil1" d="M6575.23 17507.79c51.69,-11.12 102.26,-13.04 154.14,-2.87 43.29,78.58 42.88,201.85 42.19,306.79 -1.02,156.87 24.93,290.67 -158.16,274.63 -68.81,-6.01 -45.81,-33.72 -45.81,-221.53 0,-82.52 -9.83,-289.37 7.64,-357.02zm-159.73 693.57c121.16,25.05 342.41,42.12 426.65,-33.86 146.76,-132.36 147.79,-669.34 -12.84,-762.73 -83.07,-48.19 -305.89,-43.61 -415.25,-13.84l1.44 810.43z"/>
  <path class="fil1" d="M8290.73 17513.18c36.11,-21.85 102.67,-16.04 151.95,-10.45 42.46,91.95 42.11,189.1 41.99,308.98 -0.22,134.07 14.19,254.41 -79.94,270.38 -163.71,27.73 -123.91,-22.04 -123.91,-217.28 0,-82.13 -20.82,-295.86 9.91,-351.63zm-162.14 690.77c416.14,30.79 532.26,25.12 531.31,-424.2 -0.88,-439.95 -132.77,-425.08 -532.05,-393.19l0.74 817.39z"/>
  <path class="fil1" d="M13581.65 17545.82c29.47,93.71 42.04,388.07 10.3,457.57 -15.7,34.14 -74.27,67.99 -122.33,46.22 -60.83,-27.38 -38.23,-233.33 -37.89,-301.67 0.76,-151.21 -6.07,-205.88 149.92,-202.12zm-302.9 361.38c6.08,91.48 18.84,200.09 72.15,251.14 58.52,55.86 158.45,83.77 263.03,47.32 218.03,-75.71 160.76,-679.37 74.68,-767.63 -47.17,-48.34 -181.24,-65.12 -266.16,-39.67 -173.81,51.95 -153.67,358.05 -143.7,508.84z"/>
  <path class="fil0" d="M9566.04 17298.49c142.61,0 105.06,17.34 154.82,-97 36.4,-83.63 123.98,-235.72 180.9,-307.54 42.13,-53.11 73.59,-76.79 106.03,-131.68 -101.37,-3.68 -378.73,-20.61 -425.29,14.88 -40.76,31.2 -116.74,118.17 -158.1,160.08 -56.52,57.07 -296.01,275.44 -309.32,332.79 22.34,20.49 38.31,25.95 70.93,28.4l380.03 0.07z"/>
  <path class="fil0" d="M9070.52 17233.84c65.53,-16.65 198.23,-172.23 253.25,-227.31 42.4,-42.54 214.15,-197.57 232.17,-245.21l-938.57 -0.68c25.19,71.34 383.1,367.53 453.15,473.2z"/>
  <path class="fil1" d="M8897.53 17526.02c89.9,-52.42 331.01,61.5 275.59,-127.52 -65.68,-22.66 -339.48,-16.66 -423.18,-10.11 -11.2,198.04 -1.85,423.86 -1.71,625.1 0.15,223.57 -24.51,192.17 127.45,191.21 53.04,-0.41 106.29,-0.14 159.4,0 24.44,0 51.07,1.16 75.16,0.76 133.12,-2.53 77.14,-112.51 72.84,-116.88 -57.06,-59.38 -264.52,37.62 -280.98,-45.73l-1.56 -82.47c0.2,-35.29 -2.32,-81.03 2.1,-109.43 57.42,-26.08 166.98,5.2 228.76,-15.49 11.4,-8.05 56.32,-101.93 -16.73,-123.22l-212.91 -13.31c-7.51,-43.28 -20.27,-139.95 -4.23,-172.91z"/>
  <path class="fil1" d="M7461.24 17396.32c-141.3,-17.41 -276.54,-9.42 -425.43,-11.4l6.49 816.91 419.08 0.9c18.97,-50.32 30.17,-46.02 17.61,-122.34l-290.75 -7.92 -1.08 -229.92 159.27 -1.56c87.51,0.41 104.5,-8.6 89.83,-108.54 -18.17,-30.73 -201.39,-24.78 -249.17,-25.68l-7.44 -189.56c71.81,-0.27 212.64,11.4 281.19,-17.48l0.4 -103.41z"/>
  <path class="fil1" d="M7951.65 17524.65c15.91,-25.19 31.47,-51.54 32.37,-95.29 -79.67,-75.37 -416.97,-125.2 -426.25,159.39 -2.39,73.05 32.15,123.01 63.41,160.97 55.71,67.78 234.9,131.06 252.85,203.56 20.63,83.42 -19.78,135.11 -102.74,128.47 -75.42,-5.93 -96.1,-56.65 -159.39,-69.15 -288.62,99.13 442.83,449.87 433.21,-62.53 -3.2,-168.54 -154.35,-188.27 -259.54,-269.43 -50.93,-39.4 -109.91,-113.39 -40.55,-171.56 55.49,-46.69 140.56,11.96 206.63,15.57z"/>
  <path class="fil0" d="M14839.01 13015.23c-153.74,41.3 -132.99,230.52 -132.09,420.86 1.64,350.8 -1.17,402.42 167.03,379.2 160.63,-22.19 132.31,-228.62 130.67,-421.73 -2.32,-276.68 17.19,-427.42 -165.61,-378.33z"/>
  <path class="fil1" d="M14609.7 18065.03c-45.12,34.07 -173.45,12.01 -232.44,12.15l1.64 104.86c4.03,21.84 1.98,13.85 9.28,25.6 0.97,0.75 440.18,121.24 416.62,-268.97 -6.54,-108.53 -37.4,-109.09 -61.64,-169.49 48.12,-92.1 67.65,-267.13 -17.54,-338.12 -87.52,-73.04 -253.6,-40.55 -363.99,-11.2l31.82 110.26c56.18,14.73 136.24,-15.43 205.13,-3.69 29.21,80 22.79,111.88 -4.37,184.93l-124.51 12.42c-9.84,38.44 -10.04,101.09 1.29,131.54 29.49,11.33 38.36,5.47 76.18,6.35 174.69,3.76 67.8,199.33 62.53,203.36z"/>
  <path class="fil1" d="M5919.76 13239.96c-112.98,39.72 -199.54,166.15 -154.49,321.93 81.03,280.29 583.94,200.22 484.07,-165.13 -31.48,-114.88 -179.05,-209.71 -329.58,-156.8z"/>
  <path class="fil1" d="M15926.8 13241.52c-303.63,107.53 -161.51,585.93 176.33,476.84 106.36,-34.41 198.85,-169.64 151.95,-322.01 -34.67,-112.71 -164.71,-212.84 -328.28,-154.83z"/>
  <path class="fil1" d="M13979.97 17871.36c-109.43,170.12 -152.16,167.8 -133.6,333l426.1 0c2.74,-45.46 6.08,-97.83 -5.52,-133.87 -57.35,-21.7 -155.16,-8.25 -225.34,-9.21 -1.51,-63.96 214.76,-245.54 214.62,-451.37 -0.07,-112.84 -12.89,-197.08 -118.71,-216.54 -91.21,-16.72 -216.67,-7.03 -277.43,35.99l33.45 101.91c57.28,10.11 96.25,-17.82 154.48,-10.65l36.66 11.41c1.23,-1.91 91.96,33.52 -104.71,339.33z"/>
  <path class="fil0" d="M10218.58 13793.17c91.21,27.71 220.91,15.23 244.25,-76.32 29.77,-116.52 19.8,-487.34 -8.12,-606.59 -14.4,-61.45 -13.93,-80.35 -80.28,-84.52 -209.09,-13.24 -165.13,-6.76 -165.13,389.18 0,63.63 0.07,127.45 0,191.13 0,47.12 -6.69,150.33 9.28,187.12z"/>
  <path class="fil0" d="M9647.83 16732.02l162.47 -2.24c210.46,0.54 219.32,19.65 347.67,-89.29 113.66,-96.32 81.58,-52.43 83.07,-379.42l0.21 -120.89c-30.58,10.11 -256.53,244.87 -297.09,286.77l-223.37 222.48c-44.83,43.48 -53.23,40.41 -72.96,82.59z"/>
  <path class="fil0" d="M10677.05 16845.28c-49.02,20.42 -193.39,179.12 -238.51,224.53 -39.94,40.2 -206.51,192.37 -221.04,228.61l588.44 -0.81c7.23,-44.85 8.87,-247.26 2.79,-292.94 -6.48,-47.85 -92.98,-132.77 -131.68,-159.39z"/>
  <path class="fil0" d="M10835.42 17806.73c-23.47,23.27 -36.58,27.64 -43.83,56.11l583.68 2.12c7.23,-127.33 0.67,-199.55 -5.95,-315.6 -1.37,-23.75 -100.28,-118.98 -135.91,-131.96l-397.99 389.33z"/>
  <path class="fil0" d="M8497.7 16661.51c43.22,0.14 83.49,-56.04 110.93,-83.35l1136.06 -1136.73c50.25,-50.93 396.83,-382.57 401.54,-418.07 -87.04,-16.78 -137.36,60.97 -239.96,165.54l-1349.52 1347.96c-47.3,48.2 -96.67,62.66 -59.05,124.65z"/>
  <path class="fil0" d="M9783.81 17936.42c47.51,32.43 116.53,111.75 160.97,155.17 47.24,46.14 111.13,122.74 162.88,152.43 49.14,-45.66 330.88,-315.99 349.24,-350.2l-667.16 -1.15 -5.93 43.75z"/>
  <path class="fil0" d="M12560.95 7074.5c217.08,0.07 224.79,-27.99 161.38,-245.68 -21.16,-72.51 -72.09,-288.42 -143.9,-259 -40.07,16.46 -108.34,217.42 -127.18,278.12 -48.13,154.48 -88.48,226.49 109.7,226.56z"/>
  <path class="fil0" d="M8290.73 17513.18c-30.73,55.77 -9.91,269.5 -9.91,351.63 0,195.24 -39.8,245.01 123.91,217.28 94.13,-15.97 79.72,-136.31 79.94,-270.38 0.12,-119.88 0.47,-217.03 -41.99,-308.98 -49.28,-5.59 -115.84,-11.4 -151.95,10.45z"/>
  <path class="fil0" d="M6575.23 17507.79c-17.47,67.65 -7.64,274.5 -7.64,357.02 0,187.81 -23,215.52 45.81,221.53 183.09,16.04 157.14,-117.76 158.16,-274.63 0.69,-104.94 1.1,-228.21 -42.19,-306.79 -51.88,-10.17 -102.45,-8.25 -154.14,2.87z"/>
  <path class="fil0" d="M10526.05 17866.25c148,-13.99 169.02,41.51 249.3,-45.46 76.18,-82.47 412.87,-398 433.21,-441.19l-20.07 -11.69c-36.45,-26.35 -46.02,-53.72 -82.53,-70.3l-579.91 568.64z"/>
  <path class="fil0" d="M9189.29 17329.82c16.11,50.86 158.38,170.12 205.4,217.71l185 187.64c19.87,15.43 3.22,7.18 34.01,19.94 -1.71,-199.4 25.32,-271.62 46.21,-427.4l-470.62 2.11z"/>
  <path class="fil0" d="M11399.83 16450.65l1.44 22.73 20.07 19.25c-28.68,51.61 -14.89,367.4 -10.64,449.73 33.57,-12.23 308.61,-289.18 324.24,-323.72 -64.51,-35.02 -115.29,-68.74 -189.71,-80.55l48.2 -0.96c19.19,4.1 25.54,8.94 59.6,14.07 -26.35,-61.58 -194.96,-132.16 -253.2,-100.55z"/>
  <path class="fil2" d="M11402.7 16418.01l-2.87 32.64c58.24,-31.61 226.85,38.97 253.2,100.55 -34.06,-5.13 -40.41,-9.97 -59.6,-14.07l-48.2 0.96c74.42,11.81 125.2,45.53 189.71,80.55 -15.63,34.54 -290.67,311.49 -324.24,323.72 -4.25,-82.33 -18.04,-398.12 10.64,-449.73l-20.07 -19.25c-16.25,99.79 -1.09,414.78 -5.81,447.4 -6.2,42.53 20.96,24.37 -20.26,39.04 -1.93,3.01 -10.79,32.23 -16.39,41.78 -7.85,13.32 -23.55,29.44 -34.69,40.55 -51.66,52.1 -173.79,183.36 -218.16,202.75 -79.39,-38.57 -208.35,-224.24 -265.22,-254.29l2.54 32.3c48.87,39.92 204.99,193.18 242.2,247.11 -61.65,82.67 -351.56,346.44 -440.99,441.2 -26.69,28.26 -44.03,49.36 -72.5,76.12 -38.3,36.17 -48.26,31.06 -70.24,81.3l24.3 -2.39 579.91 -568.64c36.51,16.58 46.08,43.95 82.53,70.3l20.07 11.69c9.35,-1.24 21.85,-4.18 29.83,-7.04 1.91,-0.62 5.67,-1.31 7.04,-4.71 1.29,-3.21 4.02,-3.68 6.07,-5.32 18.98,4.15 14.81,7.37 10.04,-11.74 16.04,2.79 11.19,5.11 8.6,-12.3 16.31,2.12 13.03,5.81 10.64,-10.31 17.14,2.88 14.21,6.96 11.53,-9.48 18.09,3.75 14.89,7.77 11.55,-9.98 17.89,3.42 14.6,7.25 10.91,-10.37 18.92,4.17 15.02,7.51 10.38,-11.46 16.04,2.39 12.16,5.39 9.42,-11.13 17.95,3.42 15.29,7.91 11.75,-9.42 17.89,4.22 14.2,7.78 10.91,-10.38 18.92,4.17 15.03,7.52 10.52,-11.47l8.06 -13.65c-16.53,0 -12.36,-3.48 -8.06,13.65 -17.48,-2.38 -13.72,-5.94 -10.52,11.47 -17.8,-4.1 -14.26,-7.5 -10.91,10.38 -17.88,-4.16 -14.75,-8.26 -11.75,9.42 -17.88,-3.76 -13.99,-6.89 -9.42,11.13 -17.61,-2.39 -13.99,-6.08 -10.38,11.46 -17.75,-3.96 -14.19,-7.57 -10.91,10.37 -17.48,-3.54 -14.14,-7.37 -11.55,9.98 -17.19,-3.83 -13.92,-7.71 -11.53,9.48 -16.86,-2.93 -13.52,-6.55 -10.64,10.31 -17.41,-2.38 -13.26,-5.38 -8.6,12.3 -17.89,-2.74 -14.14,-6.15 -10.04,11.74 -63.22,-6.98 -105.61,-49.22 -117.82,-111.14 42.73,-35.43 74.95,-72.71 116.73,-113.04l117.54 -111.97c1.24,-4.23 4.71,-4.15 8.27,-6.13l-1.64 207.24c35.43,-53.18 8.87,-109.9 19.86,-209.16l4.51 110.11c31.94,-45.46 -18.23,-107.38 40.75,-172.7 71,-78.71 290.67,-274.5 314.09,-318.6 32.35,11.55 34.2,13.58 61.09,30.25l53.73 29.48c1.98,-2.79 6.75,3 10.24,4.51l-14.27 -14.33c-44.92,-41.58 -115.7,-75.1 -176.47,-137.76 -28.25,-29.29 -13.23,-24.92 -33.79,-50.79l-127.65 -107.72c16.24,-18.64 -7.03,-14.96 29.08,-12.08 -9.89,-16.94 15.9,-8.27 -18.97,-17.21l-13.87 6.89 -48.26 -18.15c25.53,48.81 57.42,66.07 87.86,102.06l-159.81 -34.28z"/>
  <path class="fil0" d="M9502.76 10036.03c148.47,13.58 278.58,-16.53 278.38,-168.28 -0.2,-156.11 -129.84,-179.81 -278.17,-169.91l-0.21 338.19z"/>
  <path class="fil0" d="M13581.65 17545.82c-155.99,-3.76 -149.16,50.91 -149.92,202.12 -0.34,68.34 -22.94,274.29 37.89,301.67 48.06,21.77 106.63,-12.08 122.33,-46.22 31.74,-69.5 19.17,-363.86 -10.3,-457.57z"/>
  <path class="fil0" d="M10835.63 16258.82l4.91 62.46c272.11,-33.92 310.13,30.59 444.95,-153.8 -64.85,-49.15 -113.94,-123.83 -179.53,-166.22 -97.29,78.16 -167.66,185.88 -270.33,257.56z"/>
  <path class="fil2" d="M10845.11 15730.05c41.58,41.29 219.47,213.86 241.32,254.9 -31.13,31.6 -223.23,233.19 -243.03,241.86l1.71 -496.76zm-98.77 -146.57c18.09,3.34 15.49,8.06 12.7,-8.94 18.09,3.35 14.6,7.09 10.99,-10.79 15.84,2.25 11.74,5.25 9.55,-11.4 15.84,2.18 12.57,5.81 11.2,-9.62 17.41,2.86 14.26,7.03 11.6,-9.97 17.48,2.79 13.45,6.07 10.11,-11.68 29.76,0.14 10.45,-11.87 22.39,17.89l0.75 719.85c102.67,-71.68 173.04,-179.4 270.33,-257.56 65.59,42.39 114.68,117.07 179.53,166.22 21.1,2.05 18.91,7.3 11.26,-11.94 -39.58,-28.67 -150.52,-134.7 -162.19,-181.24 27.85,-42.75 711.38,-717.6 817.81,-820.88 36.93,-35.91 103.29,-81.25 113.65,-129.92 20.36,5.74 17.35,11.95 17.35,-5.93l-17.35 5.93 -17.26 -4.71c-7.65,36.38 8.74,2.05 -24.44,36.04l-918.36 904.51c-83.96,-86.63 -166.71,-185.4 -262.07,-261.04l-6.69 -188.07c-49.56,-7.03 -14.82,-2.66 -24.71,10.85 -16.39,-1.43 -12.63,-4.91 -10.11,11.68 -16.51,-2.73 -13.04,-6.49 -11.6,9.97 -16.72,-2.93 -13.52,-6.69 -11.2,9.62 -16.8,-2.18 -13.11,-5.52 -9.55,11.4 -17,-2.19 -13.52,-6.08 -10.99,10.79 -17.14,-3.29 -13.99,-7.51 -12.7,8.94 -43.77,-3.27 -20.14,10.85 -72.36,-48.13l-164.66 -164.38c-42.66,-42.87 -182.68,-194.28 -224.04,-219.06 17.55,59.87 65.12,89.43 104.03,126.57l222.28 223.89c60.07,63.84 89.35,69.71 101.09,110.05 -15.14,-0.4 -11.4,-3.75 -9.35,11.95 -15.43,-0.07 -11.67,-3.61 -9.14,12.22 -15.98,-1.57 -12.08,-4.84 -10.32,11.4 -16.58,-2.18 -13.58,-6.21 -11.46,9.62 -15.98,-2.18 -11.88,-5.11 -9.56,11.4 -15.97,-1.29 -12.63,-5.18 -10.92,10.65 -15.91,-1.84 -12.08,-4.98 -9.69,11.27 -16.12,-1.51 -12.7,-5.32 -10.99,10.65 -16.11,-2.25 -12.36,-5.54 -10.04,10.84 -16.18,-1.69 -12.84,-5.52 -11.4,10.25 -16.04,-2.39 -12.35,-5.66 -10.3,10.65 -15.99,-1.78 -12.64,-5.59 -11.55,10.03 -15.77,-2.17 -12.08,-5.52 -10.5,10.38 -15.77,-1.44 -12.37,-5.32 -11.55,9.96 -15.5,-1.77 -11.81,-5.05 -10.23,10.65 -15.57,-1.02 -12.16,-4.71 -10.79,10.66 -15.5,-1.24 -11.74,-4.58 -9.56,11.46 -15.9,-1.15 -12.49,-4.84 -10.51,10.86 -15.97,-1.64 -12.15,-4.92 -9.83,11.33 -16.25,-1.85 -12.83,-5.66 -11.41,10.16 -16.17,-2.44 -12.55,-5.79 -10.37,10.67 -16.1,-1.85 -12.76,-5.67 -11.12,10.3 -16.04,-2.32 -12.35,-5.59 -10.18,10.85 -16.11,-1.71 -12.69,-5.38 -10.91,10.37 -15.92,-1.83 -12.16,-5.18 -10.25,11.01 -16.04,-2 -12.63,-5.74 -11.8,9.69 -15.7,-2.19 -12.09,-5.54 -10.66,10.23 -15.63,-1.22 -12.29,-4.98 -11.05,10.31 -15.5,-1.57 -11.81,-4.84 -10.03,11.06 -15.72,-1.15 -12.3,-4.91 -10.72,10.65 -15.72,-1.57 -12.03,-4.84 -9.91,11.2 -15.97,-1.44 -12.55,-5.2 -10.72,10.64 -16.11,-1.9 -12.21,-5.12 -9.69,11.34 -16.38,-1.71 -12.97,-5.47 -10.79,10.71 -16.44,-2.39 -12.75,-5.66 -9.82,11.13 -16.6,-1.92 -13.11,-5.46 -10.38,11.12 -16.79,-2.72 -13.03,-6.01 -9.9,10.93 -16.24,-1.63 -12.63,-5.25 -10.92,10.99 -16.46,-2.86 -13.18,-6.89 -12.16,9.08 -16.72,-2.32 -13.38,-5.73 -9.62,10.72l-26.96 -5.32c23.2,35.08 -32.29,18.9 12.9,13.58 1.24,-0.15 5.59,-1.57 6.9,-1.91 1.77,-0.41 4.91,-4.1 7.16,-6.35 14.34,1.3 10.52,4.23 9.62,-10.72 16.73,2.11 14.01,6.62 12.16,-9.08 17.75,3 14.2,6.76 10.92,-10.99 16.11,1.84 12.57,5.18 9.9,-10.93 17,2.53 13.31,5.95 10.38,-11.12 15.7,1.77 11.87,4.99 9.82,-11.13 16.87,2.18 13.45,5.94 10.79,-10.71 15.5,1.9 11.47,4.91 9.69,-11.34 16.39,1.78 12.91,5.53 10.72,-10.64 15.23,1.29 11.4,4.57 9.91,-11.2 15.97,1.43 12.48,5.12 10.72,-10.65 14.94,1.17 11.18,4.3 10.03,-11.06 15.9,1.56 12.56,5.32 11.05,-10.31 14.96,1.3 11.4,4.79 10.66,-10.23 16.85,2.25 13.85,6.41 11.8,-9.69 15.84,2.03 12.01,5.32 10.25,-11.01 16.51,1.93 13.23,5.74 10.91,-10.37 15.43,1.63 11.68,4.92 10.18,-10.85 16.73,2.12 13.44,5.94 11.12,-10.3 15.43,1.83 11.74,5.05 10.37,-10.67 17.14,2.47 14.01,6.57 11.41,-10.16 15.77,2.05 11.67,5.13 9.83,-11.33 16.24,1.57 12.77,5.25 10.51,-10.86 14.96,1.1 10.93,4.24 9.56,-11.46 15.77,1.23 12.36,4.91 10.79,-10.66 14.8,1.17 11.12,4.51 10.23,-10.65 16.39,1.85 13.19,5.81 11.55,-9.96 15.14,1.57 11.53,4.91 10.5,-10.38 16.8,2.05 13.65,6.21 11.55,-10.03 15.43,1.78 11.67,5.05 10.3,-10.65 17,2.18 13.79,6.21 11.4,-10.25 15.56,2 11.75,5.06 10.04,-10.84 16.85,2.05 13.58,5.86 10.99,-10.65 15.28,1.64 11.33,4.64 9.69,-11.27 16.65,1.65 13.52,5.53 10.92,-10.65 15.5,1.64 11.54,4.64 9.56,-11.4 16.39,1.98 13.38,6.08 11.46,-9.62 16.67,2.19 12.77,5.53 10.32,-11.4 15.63,1.78 11.12,4.51 9.14,-12.22 15.57,0.06 12.01,3.75 9.35,-11.95 0.83,-1.5 13.94,-0.47 -4.84,-31.06l17.2 7.93c1.36,-0.07 5.12,-0.76 6.49,-1.03l14.81 -4.78z"/>
  <path class="fil0" d="M9783.73 17628.08c28.2,-93.88 31.06,-204.46 78.52,-276.21 -6.35,32.02 -64.72,258.58 -78.52,276.21zm-66 115.56c44.44,-40.68 400.23,-393.14 406.38,-415.32 -112.78,-0.89 -166.22,-11.27 -251.7,11.75 -32.62,8.74 -49.62,-53.12 -89.56,30.79 -36.79,77.47 -72.76,309.1 -65.12,372.78z"/>
  <path class="fil0" d="M13577.06 13341.8c10.45,5.88 -7.16,3.69 26.15,9.08l96.73 -7.84c148.28,-36.94 77.14,-266.17 60.63,-288.96 -23.83,-32.98 -53.79,-29.22 -105.82,-28.27 -54.33,1.02 -77.47,-5.25 -83.28,48.95 -4.91,46.42 -3.35,231.2 5.59,267.04z"/>
  <path class="fil0" d="M10843.4 16226.81c19.8,-8.67 211.9,-210.26 243.03,-241.86 -21.85,-41.04 -199.74,-213.61 -241.32,-254.9l-1.71 496.76z"/>
  <path class="fil0" d="M8166.75 10240.75l288.15 -0.07c-15.23,-57.82 -119.87,-331.83 -148.74,-369.51l-139.41 369.58z"/>
  <path class="fil0" d="M9797.6 18045.3c23.83,147.8 92.22,239.88 139.39,361.33 40.21,-5.4 18.92,1.92 46.9,-28.47l100.35 -109.9c-35.77,-48.81 -93.39,-99.88 -138.78,-145.69l-143.29 -138.36c-1.16,-4.1 -4.64,-4.1 -7.03,-6.15l2.46 67.24z"/>
  <path class="fil0" d="M9791.45 17300.47c63.7,-100.69 225.35,-447 371.7,-523.52 -22.05,-20.83 6.22,-4.64 -25.8,-15.16 -9.35,-3.2 -19.12,-4.57 -29.01,-4.09 -25.05,1.3 -32.01,8.74 -46.35,20.2l-167.53 204.94c-42.73,63.14 -155.92,251.61 -167.65,316.75l64.64 0.88z"/>
  <path class="fil0" d="M11251.5 17362.53c-4.1,-17.89 -7.85,-14.48 10.04,-11.74 -4.66,-17.68 -8.81,-14.68 8.6,-12.3 -2.88,-16.86 -6.22,-13.24 10.64,-10.31 -2.39,-17.19 -5.66,-13.31 11.53,-9.48 -2.59,-17.35 -5.93,-13.52 11.55,-9.98 -3.28,-17.94 -6.84,-14.33 10.91,-10.37 -3.61,-17.54 -7.23,-13.85 10.38,-11.46 -4.57,-18.02 -8.46,-14.89 9.42,-11.13 -3,-17.68 -6.13,-13.58 11.75,-9.42 -3.35,-17.88 -6.89,-14.48 10.91,-10.38 -3.2,-17.41 -6.96,-13.85 10.52,-11.47 -4.3,-17.13 -8.47,-13.65 8.06,-13.65l-1.23 -3.35 1.64 -207.24c-3.56,1.98 -7.03,1.9 -8.27,6.13l-117.54 111.97c-41.78,40.33 -74,77.61 -116.73,113.04 12.21,61.92 54.6,104.16 117.82,111.14z"/>
  <path class="fil0" d="M10842.11 16356.71l-4.71 67.79 168.07 -21.02c-58.23,18.9 -95.02,34.26 -165.81,32.48l-1.1 58.79c40.22,20.88 -1.36,-18.24 61.04,9.42 -80.22,15.49 -61.31,22.05 -61.79,111.12 44.04,-27.71 114.48,-93.03 133.04,-135.77 -28.59,7.78 -43,17.33 -75.83,15.64l13.3 -7.17c79.06,-29.7 66.63,9.62 129.23,-61.44 42.53,-48.27 75.91,-51.61 102.82,-116.05 -83.97,10.72 -236.61,10.38 -298.26,46.21z"/>
  <path class="fil2" d="M9783.81 17936.42c-10.72,39.12 -5.13,73.79 13.79,108.88l-2.46 -67.24c2.39,2.05 5.87,2.05 7.03,6.15l143.29 138.36c45.39,45.81 103.01,96.88 138.78,145.69l-100.35 109.9c-27.98,30.39 -6.69,23.07 -46.9,28.47l23.34 20.55 537.39 -526.8c1.37,-1.5 3.89,-4.37 5.81,-6.56l-46.63 0c-18.36,34.21 -300.1,304.54 -349.24,350.2 -51.75,-29.69 -115.64,-106.29 -162.88,-152.43 -44.44,-43.42 -113.46,-122.74 -160.97,-155.17l5.93 -43.75c-38.16,19.8 -6.28,-12.5 -14.8,24.98 -0.49,2.18 3.27,10.86 3.13,9.21 -0.2,-1.77 3.42,6.69 5.74,9.56z"/>
  <path class="fil0" d="M11416.08 13456.5l137.89 0.27c-1.22,-58.23 -20.75,-135.24 -31.25,-192.86 -7.18,-39.24 -23.56,-163.56 -43.7,-191.54l-62.94 384.13z"/>
  <path class="fil2" d="M11233.41 17417.4c35.63,12.98 134.54,108.21 135.91,131.96 6.62,116.05 13.18,188.27 5.95,315.6l-583.68 -2.12c7.25,-28.47 20.36,-32.84 43.83,-56.11l397.99 -389.33zm113.59 -129.7c-17.21,-3.07 -13.79,-6.96 -11.6,10.04 -16.26,-1.71 -12.7,-5.26 -10.31,11.06 -16.05,-1.64 -12.57,-5.26 -10.32,10.79 -15.77,-1.78 -12.35,-5.4 -10.64,10.3 -17.75,-2.86 -14.48,-6.89 -11.19,10.58 -15.84,-1.91 -11.4,-4.64 -8.95,12.22 -15.15,-0.95 -12.15,-4.78 -10.78,9.84 -18.43,-3.22 -15.36,-7.37 -11.27,10.57 -19.66,-3.82 -13.58,-6 -8.12,14.88 -18.91,23.63 -17.82,8.27 -52.56,41.23l-372.12 371.02c-34.89,34.89 -38.84,27.18 -46.83,60.83 47.44,24.09 503.87,14.2 598.55,12.01 22.52,-57.28 16.58,-230.19 7.57,-296.07 -13.31,-96.59 0.89,-26.13 3.83,-126.49 1.3,-43.14 4.84,-93.86 -5.46,-132.83 -24.98,26.96 -11.6,147.99 -10.38,193.32 -43,-16.32 -12.55,5.94 -45.73,-30.52 -35.16,-38.7 -58.23,-53.59 -76.87,-92.5 15.7,-2.45 11.87,1.78 8.12,-14.88 16.59,3.28 12.49,6.42 11.27,-10.57 16.58,3 13.38,6.62 10.78,-9.84 15.98,1.23 11.95,4.44 8.95,-12.22 16.38,1.7 12.89,5.53 11.19,-10.58 16.38,2.88 12.83,6.22 10.64,-10.3 16.19,1.77 12.64,5.32 10.32,-10.79 16.04,1.56 12.49,5.05 10.31,-11.06 16.38,1.58 13.16,5.73 11.6,-10.04 15.43,2.93 11.2,6.35 13.99,-8.33l20 5.13c-0.54,-1.37 -7.09,-55.5 -20,-5.13 -18.29,-3.14 -15.7,-8.25 -13.99,8.33z"/>
  <path class="fil0" d="M9667.42 17802.9c34.54,-45.4 26.41,-39.39 30.85,-112.1 13.46,-219.47 71.96,-276.53 79.6,-363.37 -64.58,-2.38 -73.39,6.15 -88.68,65.67 -35.08,136.73 -34.54,139.54 -38.23,269.92 -0.95,34.82 -10.3,83.42 0.27,115.24 12.03,36.24 -14.12,-2.88 16.19,24.64z"/>
  <path class="fil0" d="M10685.45 16823.92l8.33 16.85c12.28,19.19 -3.22,-0.47 14.4,20.29 26.89,31.94 64.85,71.32 100.96,86.69l1.64 -241.66c-44.24,13.99 -103.21,77.28 -125.33,117.83z"/>
  <path class="fil0" d="M11347 17287.7c1.56,15.77 4.78,11.62 -11.6,10.04 2.18,16.11 5.73,12.62 -10.31,11.06 2.32,16.11 5.87,12.56 -10.32,10.79 2.19,16.52 5.74,13.18 -10.64,10.3 1.7,16.11 5.19,12.28 -11.19,10.58 3,16.66 7.03,13.45 -8.95,12.22 2.6,16.46 5.8,12.84 -10.78,9.84 1.22,16.99 5.32,13.85 -11.27,10.57 3.75,16.66 7.58,12.43 -8.12,14.88 18.64,38.91 41.71,53.8 76.87,92.5 33.18,36.46 2.73,14.2 45.73,30.52 -1.22,-45.33 -14.6,-166.36 10.38,-193.32l-5.81 -33.18 -20 -5.13c-2.79,14.68 1.44,11.26 -13.99,8.33z"/>
  <path class="fil1" d="M9910.3 17244.36c29.01,-57.28 99.74,-190.39 138.71,-224.38 69.7,-60.7 104.25,-122.74 154.62,-174.91l21.37 -18.42c-1.98,-1.92 -4.57,-3.41 -4.91,-6.63 -0.27,-3.2 -4.91,-2.79 -6.91,-4.64l-8.93 10.45c-1.16,1.16 -3.62,3.68 -4.91,4.98l-33.65 29.63c-92.99,80 -257.98,314.14 -255.39,383.92z"/>
  <path class="fil0" d="M11402.7 16418.01l159.81 34.28c-30.44,-35.99 -62.33,-53.25 -87.86,-102.06l-45.05 -8.67c-1.91,-0.14 -5.33,-0.34 -6.96,-0.34l-19.94 76.79z"/>
  <path class="fil0" d="M10118.1 16729.7l112.71 -3.47 11.67 -96.53c-40.14,16.11 -99.2,63.77 -124.38,100z"/>
  <path class="fil0" d="M11326.73 16170.75c13.99,37.75 18.9,40.9 44.78,58.92l9.08 -87.04c-44.31,6.08 -25.46,2.32 -53.86,28.12z"/>
  <path class="fil0" d="M10194.82 15028.69c-1.49,26.48 -9.48,23.07 21.24,52.02 12.01,11.33 8.33,6.96 21.29,16.24l5.88 -79.38 -48.41 11.12z"/>
  <path class="fil0" d="M6415.5 18201.36l-1.44 -810.43c109.36,-29.77 332.18,-34.35 415.25,13.84 160.63,93.39 159.6,630.37 12.84,762.73 -84.24,75.98 -305.49,58.91 -426.65,33.86zm6863.25 -294.16c-9.97,-150.79 -30.11,-456.89 143.7,-508.84 84.92,-25.45 218.99,-8.67 266.16,39.67 86.08,88.26 143.35,691.92 -74.68,767.63 -104.58,36.45 -204.51,8.54 -263.03,-47.32 -53.31,-51.05 -66.07,-159.66 -72.15,-251.14zm-5150.16 296.75l-0.74 -817.39c399.28,-31.89 531.17,-46.76 532.05,393.19 0.95,449.32 -115.17,454.99 -531.31,424.2zm-667.75 -704.22c-68.55,28.88 -209.38,17.21 -281.19,17.48l7.44 189.56c47.78,0.9 231,-5.05 249.17,25.68 14.67,99.94 -2.32,108.95 -89.83,108.54l-159.27 1.56 1.08 229.92 290.75 7.92c12.56,76.32 1.36,72.02 -17.61,122.34l-419.08 -0.9 -6.49 -816.91c148.89,1.98 284.13,-6.01 425.43,11.4l-0.4 103.41zm6900.79 -79.87c110.39,-29.35 276.47,-61.84 363.99,11.2 85.19,70.99 65.66,246.02 17.54,338.12 24.24,60.4 55.1,60.96 61.64,169.49 23.56,390.21 -415.65,269.72 -416.62,268.97 -7.3,-11.75 -5.25,-3.76 -9.28,-25.6l-1.64 -104.86c58.99,-0.14 187.32,21.92 232.44,-12.15 5.27,-4.03 112.16,-199.6 -62.53,-203.36 -37.82,-0.88 -46.69,4.98 -76.18,-6.35 -11.33,-30.45 -11.13,-93.1 -1.29,-131.54l124.51 -12.42c27.16,-73.05 33.58,-104.93 4.37,-184.93 -68.89,-11.74 -148.95,18.42 -205.13,3.69l-31.82 -110.26zm-5464.1 106.16c-16.04,32.96 -3.28,129.63 4.23,172.91l212.91 13.31c73.05,21.29 28.13,115.17 16.73,123.22 -61.78,20.69 -171.34,-10.59 -228.76,15.49 -4.42,28.4 -1.9,74.14 -2.1,109.43l1.56 82.47c16.46,83.35 223.92,-13.65 280.98,45.73 4.3,4.37 60.28,114.35 -72.84,116.88 -24.09,0.4 -50.72,-0.76 -75.16,-0.76 -53.11,-0.14 -106.36,-0.41 -159.4,0 -151.96,0.96 -127.3,32.36 -127.45,-191.21 -0.14,-201.24 -9.49,-427.06 1.71,-625.1 83.7,-6.55 357.5,-12.55 423.18,10.11 55.42,189.02 -185.69,75.1 -275.59,127.52zm-945.88 -1.37c-66.07,-3.61 -151.14,-62.26 -206.63,-15.57 -69.36,58.17 -10.38,132.16 40.55,171.56 105.19,81.16 256.34,100.89 259.54,269.43 9.62,512.4 -721.83,161.66 -433.21,62.53 63.29,12.5 83.97,63.22 159.39,69.15 82.96,6.64 123.37,-45.05 102.74,-128.47 -17.95,-72.5 -197.14,-135.78 -252.85,-203.56 -31.26,-37.96 -65.8,-87.92 -63.41,-160.97 9.28,-284.59 346.58,-234.76 426.25,-159.39 -0.9,43.75 -16.46,70.1 -32.37,95.29zm5908.44 -95.29c60.76,-43.02 186.22,-52.71 277.43,-35.99 105.82,19.46 118.64,103.7 118.71,216.54 0.14,205.83 -216.13,387.41 -214.62,451.37 70.18,0.96 167.99,-12.49 225.34,9.21 11.6,36.04 8.26,88.41 5.52,133.87l-426.1 0c-18.56,-165.2 24.17,-162.88 133.6,-333 196.67,-305.81 105.94,-341.24 104.71,-339.33l-36.66 -11.41c-58.23,-7.17 -97.2,20.76 -154.48,10.65l-33.45 -101.91zm-1776.72 -2411.79c0,17.88 3.01,11.67 -17.35,5.93 -10.36,48.67 -76.72,94.01 -113.65,129.92 -106.43,103.28 -789.96,778.13 -817.81,820.88 11.67,46.54 122.61,152.57 162.19,181.24 49.91,-34.35 51.89,-69.83 110.26,-75.84l4.98 222.6c24.84,2.52 218.85,67.39 251.75,80.55 72.98,29.35 144.18,75.1 214.5,114.83 98.15,55.57 195.57,135.78 273.46,215.17 32.49,33.18 56.8,39.59 91.75,77.89 225.06,246.16 349.78,643.87 352.73,971.82 36.31,-14.75 10.16,0.68 40.48,-24.44 3.34,-2.88 20.34,-20.97 25.93,-26.83 50.03,-52.64 109.5,-122.4 165.88,-163.09 -39.92,-50.38 -28.81,-54.14 -50.03,-115.5 53.31,-49.9 203.02,-56.18 263.91,-42.12 116.39,26.82 131.27,75.43 132.16,208.76 1.57,218.84 -215.03,396.41 -215.44,461.6 37.14,1.64 74.47,1.03 111.61,0.54l93.93 4.03c44.99,10.04 29.9,94.61 26.29,139.05l-427.69 -0.27c-5.59,-102.94 -13.24,-125.2 38.58,-194.42 35.22,-46.83 65.12,-89.22 96.17,-137 177.77,-273.13 110.19,-352.73 103.5,-342.01l-26.62 -8.6c-15.3,-2.73 -37.62,-2.73 -53.12,-1.22 -34.6,3.27 -58.16,11.46 -81.7,28.86 -71.34,52.84 -136.68,138.58 -202.89,199.89 -79.38,73.72 -30.65,229.17 -58.09,345.75 -12.36,52.3 -18.92,119.88 -34.67,166.98 -17.28,51.61 -30.86,103.9 -48.27,153.26 -22.53,63.89 -48.13,98.1 -69.78,149.91 32.91,59.38 307.88,325.49 338.06,348.83 -12.91,-15.43 -11.06,0.2 -20.83,13.85 -50.44,70.24 -226.84,227.06 -291.08,293.54l-616.01 615.96c-103.7,101.09 -200.57,211.27 -311.23,304.73 33.94,-65.13 786.63,-795.97 903.49,-912.5 61.84,-61.56 275.18,-258.45 307.53,-313.94 -16.38,-52.98 -112.91,-131.28 -153.52,-170.53l-121.99 -121.65c-27.73,-28.6 -18.03,-24.1 -54.14,-39.12 -58.97,67.53 -40.76,70.8 -171,207.67 -30.51,32.09 -25.26,46.15 -52.77,74.75 -113.18,117.82 -292.58,261.17 -446.52,317.84 -209.1,76.93 -387.13,142.47 -619.36,145.4 -339.01,4.44 -737.67,-123.84 -944.64,-330.26 -43.76,-43.62 -95.98,-78.78 -135.51,-119.73 -52.5,-54.35 -76.66,-78.99 -120.15,-135.04 -20.34,-26.35 -37.14,-36.79 -58.77,-67.99 -24.65,-35.49 -23.97,-56.65 -58.16,-85.61l-240.84 232.12c-125.81,123.69 -64.52,113.04 72.15,250.18 53.65,53.87 100.35,99.8 155.02,153.05 106.57,103.96 872.57,856.65 900.9,909.07l-1228.07 -1218.72c16.24,-40.14 292.5,-314.42 332.03,-334.83 -8.06,-81.38 -42.8,-92.1 -69.49,-161.46 -32.08,-83.62 -88.61,-258.71 -98.37,-346.78 -4.3,-38.63 -2.46,-76.11 -4.71,-115.09 -5.67,-98.64 -4.79,-29.01 -30.11,-87.1 89.15,-73.73 -91.95,-206.38 -202.62,-315.74 -40.61,-40.07 -180,-200.96 -227.11,-219.81 -47.44,-18.97 -85.6,4.17 -128.46,-20.13 -18.38,-4.92 26.34,-32.64 40.19,-67.92 -31.18,-55.03 -214.89,-222.14 -273.94,-281.66 -33.92,-34.21 -172.02,-188.83 -211.42,-202.75 -43.55,-15.23 -84.92,3.42 -127.99,-12.01 2.25,-31.47 27.03,-23.15 44.98,-85.55l-54.87 -43.75c366.09,-338.8 830.77,-826.68 1201.11,-1193.26l303.17 -302.28c18.9,-18.16 29.89,-28.88 48.73,-46.62 30.18,-28.54 36.04,-25.68 50.93,-63.62 -44.38,0.27 -5357.13,14.12 -5426.29,-5.88 -16.38,-59.04 48.07,-41.91 109.02,-41.22 895.56,8.72 1791.6,0 2687.1,0l2686.97 0.47c74.88,-0.07 107.99,12.22 144.71,-31.54 47.39,53.66 80.89,31.41 195.11,31.12 74.34,-0.05 148.67,-0.05 223.01,-0.05l6542.08 0.13c108.74,0.34 181.31,-27.79 189.43,40.01 -59.18,20.61 -4072.39,6.89 -4586.22,6.89 -192.37,0 -479.84,-17.07 -660.74,4.57 108.89,81.71 294.23,289.51 400.3,395.38 267.33,266.52 541.76,527.97 803.55,799.86 96.46,100.22 334.15,309.65 400.92,405.3 -21.43,45.46 -400.31,412.04 -456.69,466.03l-239.89 237.97c-10.3,10.24 -11.25,10.24 -21.09,21.64l607.56 -624.55c32.08,-32.02 73.1,-56.04 89.15,-101.09 -36.12,-63.97 -1340.99,-1348.65 -1522.09,-1525.03 -48.54,-47.17 -44.92,-76.67 -133.46,-79.67zm-7806.61 -275.24l13470.19 0.2 -7.59 91.19 -13462.8 -0.95 0.2 -90.44zm6871.72 -783.62c-26.48,-50.44 24.58,-244.79 36.18,-315.45 17.28,-104.85 33.66,-206.5 52.23,-308.76 19.65,-107.92 35.84,-210.59 55.15,-318.8 29.22,-163.9 9.01,-157.34 196.33,-161.31 171.01,-3.47 144.05,38.37 177.23,191.08 36.79,168.82 181.58,833.99 158.36,928.33 -275.51,69.36 -165.61,-212.91 -240.29,-335.66 -24.84,-12.22 -57.75,-7.36 -95.43,-7.43 -66.49,-0.15 -72.02,-7.59 -91.95,11.74 -33.05,36.31 -44.44,272.85 -67.51,335.58 -59.26,4.64 -145.61,13.79 -180.3,-19.32zm3571.19 -1088.21c128.89,-33.38 310.13,-14.87 390.82,55.23 148.35,128.96 133.67,616.71 92.09,794.46 -32.35,138.17 -77.34,207.88 -212.29,244.53 -132.38,35.77 -298.53,13.04 -383.52,-57.62 -161.04,-133.73 -143.91,-593.77 -101.72,-789.75 29.01,-134.54 81.04,-212.16 214.62,-246.85zm-4712.16 1080.64c-17.95,-279.48 -1.03,-621.62 -0.96,-907.99 0,-174.14 -17.14,-164.11 57.55,-170.8 176.06,-15.84 470.88,-57.27 565.91,94.62 108.28,172.77 97.9,583.93 39.94,787.36 -34.94,122.54 -105.94,190.46 -240.01,216.47 -71.41,13.92 -360.45,6.49 -422.43,-19.66zm-2246.59 -961.03c0.28,-61.23 -6.69,-112.65 43.15,-128.4 49.15,-15.65 111.68,-6.22 132.09,27.71 48.47,80.55 7.23,853.85 80.75,905.39 248.9,58.64 211.63,-192.03 212.1,-379.89l0.14 -446.12c0.07,-49.83 -8.95,-88.6 32.97,-105.53 32.98,-13.38 138.51,-29.22 152.43,67.71l18.38 505.11c-3.56,181.85 -14.01,376.67 -120.08,477.7 -106.98,101.93 -360.1,80.28 -449.25,-17.88 -135.31,-148.69 -103.3,-660.93 -102.68,-905.8zm8165.88 251.41c163.57,-58.01 293.61,42.12 328.28,154.83 46.9,152.37 -45.59,287.6 -151.95,322.01 -337.84,109.09 -479.96,-369.31 -176.33,-476.84zm-10007.04 -1.56c150.53,-52.91 298.1,41.92 329.58,156.8 99.87,365.35 -403.04,445.42 -484.07,165.13 -45.05,-155.78 41.51,-282.21 154.49,-321.93zm2976.88 708.93c-17.54,-154.01 -4.5,-382.69 -4.5,-544.69 0.07,-84.79 -23.42,-490.41 17.41,-529.26 9.28,-8.74 132.9,-60.4 188,42.61l158.63 371.83c14.35,34.2 26.49,59.87 41.51,96.25 16.26,39.6 21.58,65.67 51.76,89.97l-2.4 -588.5c50.25,-38.43 104.85,-41.04 167.45,-15.7 34.82,176.94 30.32,618.75 30.32,830.16 0,168.27 43.68,281.11 -73.93,278.93 -85.55,-1.64 -91.97,-40 -114.83,-89.97 -29.42,-64.31 -52.7,-113.05 -85.53,-179.61 -32.56,-66.01 -141.99,-327.33 -179.74,-359.47 1.02,102.38 23.88,564.81 -11.95,616.84 -10.86,6.47 3.69,2.93 -24.38,8.94 -52.83,11.47 -113.38,-2.81 -157.82,-28.33zm4495.23 -1073.12c312.37,-23.7 673.29,-91.55 596.62,406.78 -7.43,48.26 -20.07,88.62 -42.39,126.22 -34.47,58.3 -40.33,49.36 -78.5,91.07 14.2,93.86 205,407.67 183.02,469.52 -40.08,20.82 -133.94,12.15 -174.15,-11.4 -43.82,-25.74 -109.9,-211.35 -135.23,-268.48l-65.25 -140.63 -102.2 7.24c-7.1,106.7 29.56,396.34 -29.22,417.44 -3.28,1.22 -77.68,23.27 -127.99,-12.43 -36.26,-25.73 -26.42,-77.13 -25.94,-132.02 2.25,-287.12 -13.25,-698.55 1.23,-953.31zm-6582 1086.7c-24.52,-62.87 -11.21,-942.26 -6.91,-1085.62 152.03,1.85 431.57,-14.12 561.9,11.74 13.38,54.42 2.03,105.28 -14.06,148.28 -104.52,32.28 -245.84,-0.07 -363.86,17.61l19.99 244.59c20.56,18.02 218.45,1.51 276.55,5.59 93.66,6.5 87.24,82.06 65.81,134.77 -26.96,66.69 -205.14,35.02 -343.31,39.8 -10.03,91.88 13.11,435.24 -9.35,483.17 -26.49,36.38 -150.45,13.65 -186.76,0.07zm6133.36 -5.74c-522.23,75.84 -677.32,10.65 -685.24,-520.64 -2.6,-173.94 19.11,-429.47 119.33,-512.47 108.06,-89.57 389.79,-89.98 501.81,-9.02 1.71,53.32 -18.16,99.34 -36.38,132.23 -204.38,40.9 -347.75,-187.32 -354.58,304.27 -1.76,130.85 -26.62,413.6 85.96,444.19 47.85,13.04 122.6,10.44 160.07,-5.95 30.93,-116.44 -46.21,-319.19 43.08,-348.56 2.8,-0.95 5.53,-1.56 8.61,-2.32 10.57,-2.52 29.55,-3.4 40.61,-3.34 30.37,0.14 57.2,2.6 74.2,22.73 36.32,42.94 41.84,434.84 42.53,498.88zm-8670.01 -1832.15l13474.81 0.75 -3.47 90.24 -13470.05 -0.27 -1.29 -90.72zm503.11 -134.21c-164.73,0.14 -148.82,19.38 -157.7,-36.17 38.72,-29.64 316.96,-9.84 391.29,-9.84 4066.39,0 8137.76,-8.25 12202.72,0.07 35.57,0 71.12,-0.82 106.62,-1.09 39.87,-0.2 57.82,-5.4 82.87,11.81 -7.71,51.88 2.19,35.16 -62.04,35.09l-12563.76 0.13zm7166.56 -1226.31c-3.15,-160.9 -12.23,-1227.66 5.73,-1306.58 335.79,10.37 292.58,-38.29 290.94,102 -4.64,399.61 7.16,802.37 0,1203.23l-296.67 1.35zm-4289.68 -0.27c19.1,-110.31 465.76,-1121.79 515.18,-1304.39l281.39 3.95 519.98 1300.24 -316.28 -3.14 -93.25 -258.11 -491.63 2.52c-27.25,37.21 -85.89,211.22 -100.15,259l-315.24 -0.07zm-1498.07 -1303.85l322.89 0.07c20,72.76 259.81,704.22 284.25,734.67 34.82,-36.19 53.86,-122.88 75.03,-177.7 23.75,-61.57 46.54,-123.15 70.71,-184.38 42.6,-108.34 112.85,-265.55 140.29,-372.52l320.29 1.84 115.17 1301.46 -286.03 0.48c-35.02,-64.51 -42.05,-657.05 -76.52,-765.17 -25.95,36.92 -167.12,463.37 -202.95,566.52 -20.14,58.09 -38.1,144.93 -73.53,188.89l-164.72 1.63c-32.22,-46.21 -111.62,-307.05 -138.24,-381.05 -44.85,-125.06 -87.38,-251.61 -130.59,-377.77 -33.99,43.49 -63,652 -73.86,767.15l-296.61 -3.69 114.42 -1300.43zm7274.2 799.1c-0.27,-136.39 -19.31,-713.7 6.35,-801.15 337.5,7.37 292.04,-35.09 289.72,101.59l-10.59 1199.26c-46.21,18.5 -140.35,4.44 -198.51,5.32 -96.32,1.44 -86.7,6.22 -130.25,-64.51 -67.86,-110.24 -450.06,-719.43 -479.97,-733.16l-0.54 797.33 -296.48 -0.54 0 -1303.92 291.77 1.5c17.88,6.96 235.44,358.87 266.5,405.83 28.47,42.8 225.62,372.31 262,392.45zm-4223.39 -800.47c308.01,-1.02 657.86,-46.61 814.74,145.61 71.54,87.73 95.98,250.61 55.08,379.96 -61.43,194.15 -185.4,189.64 -237.76,244.6 14.33,32.84 -1.03,1.91 12.77,22.12 64.7,94.68 395.11,448.29 418.53,512.52 -98.64,2.8 -224.18,5.26 -321.87,1.31 -66.22,-2.61 -66.97,-23.56 -97.96,-65.07 -61.45,-82.4 -304.95,-415.72 -347.06,-438.87l-0.74 502.84 -296.69 -1.1 0.96 -1303.92zm6067.69 573.63c4.17,216.68 14.62,350.61 -91.47,502.64 -73.12,104.65 -183.16,193.93 -351.9,232.57 -376.89,86.22 -647.97,-147.45 -744.83,-396.2 -110.04,-282.42 -28.07,-647.77 240.96,-830.38 129.5,-87.99 291.43,-122.6 482.5,-92.15 185.88,29.42 269.51,122.47 363.44,204.46 -15.22,33.84 -155.92,185.46 -189.98,211.81 -72.42,-57.06 -52.28,-88.61 -169.77,-135.85 -84.72,-34.19 -183.5,-30.03 -256.88,9.5 -293.54,157.82 -244.39,692.74 65.81,765.72 193.93,45.61 380.03,-109.43 343.64,-242.2l-293.61 -0.27 1.16 -228.14 600.93 -1.51zm-4755.99 -573.14l296.82 0.47 -0.2 440.85c-0.34,36.66 -5.54,47.65 8.52,70.92 11.68,11.41 261.59,-304.93 297.43,-344.11 146.84,-160.22 92.37,-167.79 230.05,-167.59l262.96 -2.05c-17.2,42.73 -418.05,509.87 -514.93,621.62l594.67 685.86 -119.67 -1.44c-88.13,-0.68 -253.33,23.89 -309.66,-34.13 -26.68,-27.64 -38.08,-48 -62.45,-75.98l-357.03 -408.97c-15.63,-15.02 -11.13,-21.31 -22.86,-12.08 -15.5,18.49 -6.35,458.33 -6.76,531.16l-297.16 -0.55 0.27 -1303.98zm1232.11 -1699.59c-38.64,-135.44 111,-99.6 193.67,-145.07 56.03,-30.86 116.73,-123.76 148.95,-191.07 89.36,-187.04 307.94,-753.3 389.1,-969.7 53.73,-143.35 186.78,-447.81 270.62,-111.34 44.78,179.54 105.8,347.12 157.07,522.16 52.15,177.89 92.7,357.37 142.95,536.63 71.54,255.31 171.06,193.74 244.18,265.48 32.28,31.54 44.37,105.74 -22.87,111.96 -86.15,8.11 -196.6,-32.23 -314.63,-18.31 -116.87,13.6 -238.52,64.93 -238.73,-73.85 49.56,-45.47 113.94,-50.45 150.05,-122.26 34.82,-69.22 22.25,-164.53 -0.48,-235.24 -56.99,-177.43 -183.02,-154.01 -388.36,-144.05 -170.93,8.27 -202.53,95.24 -271.69,271.28 -117.55,299.29 219.13,117.56 130.86,310.07 -81.37,20.89 -205.27,-5.05 -299.88,-6.14 -109.77,-1.23 -199.61,33.45 -290.81,-0.55zm1877.01 -323.77c44.85,87.17 17.4,131.26 105.53,187.98 185.21,119.34 551.45,94.49 628.58,-98.01 109.57,-273.41 -374.71,-402.9 -591.99,-522.84 -295.04,-162.75 -322.14,-524.96 -3.07,-698.97 198.99,-108.53 585.44,-57.13 686.06,37.55 48.33,45.46 39.04,175.92 14.33,237.49l-56.52 5.81c-39.53,-50.46 -51.27,-252.11 -340.63,-248.62 -162.95,1.98 -332.32,89.49 -347.34,231.55 -30.03,284.72 441.61,373.33 639.77,501.12 292.93,188.69 258.17,551.04 -73.45,681.9 -196.39,77.41 -541.27,57.14 -695.28,-72.09 -66.27,-55.7 -60.68,-154.48 -36.92,-237.01l70.93 -5.86zm-2871.63 326.49c-36.24,1.71 -305.54,65.82 -255.03,-60.26 70.72,-176.55 174.21,126.08 174.21,-595.55 0.14,-887.24 -46.69,-627.56 -222.48,-789.34 -1.29,-137.21 128.82,-65.26 304.54,-52.56 211.13,15.21 709.2,-74.2 786.6,1.36 59.19,57.75 74.55,267.67 44.51,343.3 -85.46,-8.12 -99.73,-128.07 -156.67,-188.62 -56.79,-60.55 -162.81,-63.07 -271.75,-63.34 -354.91,-0.95 -296.75,90.17 -297.57,571.65 318.11,23.95 515.87,-143.56 555.54,134.48 10.04,70.71 18.83,150.79 -3.14,212.84 -100.96,6.56 -95.78,-181.31 -214.22,-231.2 -114.13,-48.07 -296.95,-22.12 -327.87,81.09 -18.5,61.92 1.23,340.57 12.56,414.16 24.64,161.1 220.28,69.36 211.07,229.31 -139.05,51.6 -201.58,-13.72 -340.3,-7.32zm-1199.4 -52.69c103.01,-73.45 169.71,-83.82 178.38,-262.81 9.55,-198.65 3.68,-652.34 2.1,-871.54 -1.56,-213.94 -95.02,-202.14 -170.25,-261.05 3.56,-105.8 93.26,-62.59 233.41,-55.7 61.84,3.14 239.47,-31.13 276.6,-0.95 81.92,66.62 -72.29,114.48 -111.2,153.72 -64.1,64.79 -55.02,132.77 -54.55,238.59 0.49,132.97 -12.89,781.77 15.77,882.73 32.84,115.63 102.6,92.36 143.91,155.84 26,136.26 -145.54,72.71 -238.72,69.22 -58.86,-2.17 -106.98,6.84 -162.55,13.33 -77.13,8.94 -106.7,15.82 -112.9,-61.38zm-1221.67 52.01c-82.67,0.68 -236.54,38.3 -292.11,-1.57 -12.48,-98.37 169.03,-71.95 180.16,-272.37 8.06,-144.92 9.82,-309.72 10.11,-455.53 0.27,-130.18 -6.69,-262.62 -9.84,-392.51 -9.15,-376.08 -158.92,-257.17 -163.56,-351.37 -4.3,-87.58 165.81,-42.32 224.73,-34.4 130.99,17.68 259.41,-5.94 390.54,-1.51 513.62,17.35 582.84,611.1 83.83,853.18 8.13,32.62 221.11,330.39 259.13,379.89 41.57,54.13 92.36,120.69 169.29,149.37 79.74,29.55 214.01,-4.79 168.42,120.61 -67.04,29.35 -280.64,24.79 -335.52,-16.86 -47.66,-36.24 -120.76,-148.26 -164.05,-208l-306.78 -434.63c37.41,-38.99 136.46,-62.95 196.27,-99.54 58.63,-35.7 93.45,-78.99 123.55,-162.81 109.09,-304.53 -118.1,-501.27 -343.65,-483.99 -123.69,9.35 -101.36,69.9 -104.16,183.49 -1.98,80.96 -30.38,931.87 11.81,1027.51 45.39,102.81 237.01,107.04 199.68,204.39 -66.22,41.23 -214.3,-4.16 -297.85,-3.35zm2232.8 -3452c-1785.26,103.62 -3373.84,740.26 -4675.23,1767.24l-208.56 173.25c-33.1,23.34 -41.36,28.74 -69.36,57.96 -42.66,44.51 -97.13,82.26 -142.59,123.76l-258.73 250.54c-109.29,101.23 -170.67,184.31 -258.32,262.2 -50.57,44.71 -75.15,89.29 -117.41,137.41l-353.2 422.08c-227.86,276.48 -632.06,907.31 -802.99,1256.75 -109.92,224.87 -220.77,450.22 -323.24,707.49 -968.19,2431.18 -741.14,5246.41 655.48,7439.69 146.84,230.54 259.2,394.84 420.3,609.87 148.35,197.98 201.26,254.7 344.12,420.11l436.35 466.93c186.84,185.81 396.62,386.58 609.4,548.36 29.08,21.99 41.31,37.55 68.34,58.57l372.78 275.38c2482.1,1736.99 5725.42,2004.05 8450.14,624.97 232.65,-117.83 450.54,-239.68 660.59,-370.14 107.87,-66.97 210.81,-132.29 308.42,-201.45 206.44,-146.21 721.7,-529.04 864.78,-685.84 86.97,-95.3 177.21,-156.68 263.84,-245.55 98.58,-101.18 176.33,-188.14 251.21,-269.51 45.13,-48.87 78.79,-75.98 123.98,-130.18l234.35 -275.38c204.18,-270.33 354.22,-456.14 541.27,-754.87 904.85,-1444.41 1377.44,-3065.56 1281.6,-4884.54 -84.37,-1600.59 -608.51,-2998.25 -1437.59,-4222.99 -156.46,-231.21 -324.53,-440.44 -502.08,-655.12 -21.51,-25.95 -40.69,-41.17 -60.9,-66.02 -40.75,-50.18 -80.06,-96.93 -120.69,-146.08l-246.98 -262.28c-86.83,-91.26 -176.6,-166.22 -269.71,-250.87 -47.11,-42.87 -79.46,-79.74 -130.79,-123.69 -230.46,-196.81 -469.05,-393.75 -718.21,-567.01 -544.28,-378.53 -1041.04,-657.66 -1670.85,-909.9 -1040.42,-416.55 -2260.31,-654.24 -3519.52,-581.14z"/>
 </g>
</svg>
