<?xml version="1.0" encoding="UTF-8"?>
<!DOCTYPE svg PUBLIC "-//W3C//DTD SVG 1.1//EN" "http://www.w3.org/Graphics/SVG/1.1/DTD/svg11.dtd">
<!-- Creator: CorelDRAW 2021 (64-Bit) -->
<svg xmlns="http://www.w3.org/2000/svg" xml:space="preserve" width="2.9632mm" height="2.9632mm" version="1.1" style="shape-rendering:geometricPrecision; text-rendering:geometricPrecision; image-rendering:optimizeQuality; fill-rule:evenodd; clip-rule:evenodd"
viewBox="0 0 296.32 296.32"
 xmlns:xlink="http://www.w3.org/1999/xlink"
 xmlns:xodm="http://www.corel.com/coreldraw/odm/2003">
 <defs>
  <style type="text/css">
   <![CDATA[
    .fil0 {fill:black}
   ]]>
  </style>
 </defs>
 <g id="Capa_x0020_1">
  <metadata id="CorelCorpID_0Corel-Layer"/>
  <path class="fil0" d="M47.09 242.53c1.24,-10.21 13.43,-34.03 8.12,-42.1 -7.61,-11.55 -12.88,-26.45 -14.98,-39.91 -4.69,-29.94 4.04,-60.59 23.89,-83.7 39.86,-46.4 109.51,-49.42 153.59,-7.01 44.02,42.34 41.31,112.72 -3.88,153.09 -33.53,29.95 -85.64,34.94 -123.98,11.27 -8.41,-5.19 -32.15,8.52 -42.76,8.36zm-30.52 30.1c14.98,-2.32 38.13,-9.88 53.74,-13.96 21.33,-5.58 28.25,5.68 51.05,9.79 37.9,6.83 73.91,-3.14 103.76,-27.22 57.84,-46.64 60.5,-134.92 7.85,-186.35 -53.35,-52.12 -140.53,-47.59 -187.37,10.61 -23.79,29.57 -32.97,67.18 -25.48,104.26 1.76,8.74 4.52,17.3 8.16,25.58 6.51,14.81 7.28,7.95 2.76,24.53 -4.29,15.67 -11.83,37.59 -14.47,52.76z"/>
  <path class="fil0" d="M98.42 82.61c-19.27,3.15 -22.95,32.01 -17.16,47.68 5.29,14.29 18.2,31.42 28.48,42.74 19.18,21.11 70.75,53.03 94.53,23.76 6.87,-8.45 7.36,-17.88 -2.67,-23.22 -4.23,-2.26 -20.41,-11.47 -23.95,-11.79 -12.73,-1.15 -5.59,32.44 -42.38,3.24 -6.59,-5.24 -12.09,-11.61 -17.01,-18.38 -8.78,-12.06 -8.77,-11.71 0.1,-22.18 9.33,-11.01 -3.03,-44.61 -19.94,-41.85z"/>
 </g>
</svg>
